<!-- Generated by IcoMoon.io -->
<svg version="1.1" xmlns="http://www.w3.org/2000/svg" width="1024" height="1024" viewBox="0 0 1024 1024">
<title></title>
<g id="icomoon-ignore">
</g>
<path d="M479.252 969.005c-32.112-3.147-51.327-6.301-75.572-12.404-107.566-27.078-202.092-94.23-264.15-187.656-39.853-59.997-64.030-124.944-74.084-199.006-2.797-20.603-3.836-72.048-1.932-95.643 14.738-182.627 135.863-339.412 306.788-397.109 45.683-15.421 92.481-23.025 141.697-23.025 97.512 0 189.13 30.699 267.45 89.615 89.643 67.434 151.161 165.502 173.309 276.277 7.066 35.339 8.178 47.845 8.178 91.946s-1.112 56.607-8.178 91.946c-20.377 101.918-74.323 193.602-153.206 260.381-70.806 59.941-156.751 95.723-250.396 104.249-12.722 1.158-59.53 1.445-69.904 0.428zM599.77 833.727c4.447-1.685 8.837-5.726 11.537-10.622 1.754-3.179 2.149-8.924 2.493-36.212l0.409-32.433h38.857v33.191c0 32.347 0.072 33.297 2.834 37.355 1.559 2.29 4.434 5.35 6.389 6.799 3.483 2.581 4.879 2.643 68.645 3.018 41.986 0.247 66.667-0.077 69.534-0.912 6.877-2.003 12.293-8.429 13.8-16.372 1.766-9.314 1.768-601.756 0.003-611.069-2.001-10.547-10.257-17.541-20.708-17.541-5.824 0-332.044 162.838-337.224 168.331-1.865 1.978-3.976 6.146-4.692 9.263-0.8 3.484-1.314 29.774-1.333 68.225l-0.031 62.557-115.662 38.554c-130.19 43.396-122.391 40.036-124.942 53.838-0.854 4.62-1.182 45.461-0.95 118.342 0.321 100.774 0.551 111.643 2.439 115.065 2.602 4.717 7.032 8.912 11.141 10.551 4.533 1.807 372.697 1.877 377.462 0.072zM491.847 588.833v-204.673l282.135-141.072v550.418h-79.351v-28.907c0-31.819-0.999-39.383-5.9-44.669-6.345-6.843-7.862-7.034-55.817-7.034-48.371 0-49.097 0.097-56.049 7.483l-3.779 4.014-0.744 69.114h-80.496zM573.717 653.068v-20.782h-41.565v41.565h41.565zM654.327 653.068v-20.782h-41.565v41.565h41.565zM734.937 653.068v-20.782h-41.565v41.565h41.565zM573.717 572.458v-20.782h-41.565v41.565h41.565zM654.327 572.458v-20.782h-41.565v41.565h41.565zM734.937 572.458v-20.782h-41.565v41.565h41.565zM573.717 491.847v-20.782h-41.565v41.565h41.565zM654.327 491.847v-20.782h-41.565v41.565h41.565zM734.937 491.847v-20.782h-41.565v41.565h41.565zM573.717 411.237v-20.782h-41.565v41.565h41.565zM654.327 411.237v-20.782h-41.565v41.565h41.565zM734.937 411.237v-20.782h-41.565v41.565h41.565zM734.937 330.627v-20.782h-41.565v41.565h41.565zM250.017 700.609v-92.896l99.197-33.057c54.558-18.181 99.618-33.057 100.133-33.057s0.936 56.679 0.936 125.953v125.953h-200.266zM330.627 733.678v-20.782h-41.565v41.565h41.565zM411.237 733.678v-20.782h-41.565v41.565h41.565zM330.627 653.068v-20.782h-41.565v41.565h41.565zM411.237 653.068v-20.782h-41.565v41.565h41.565z"></path>
</svg>
