<!-- Generated by IcoMoon.io -->
<svg version="1.1" xmlns="http://www.w3.org/2000/svg" width="1024" height="1024" viewBox="0 0 1024 1024">
<title></title>
<g id="icomoon-ignore">
</g>
<path d="M631.959 764.617c-8.581-5.386-11.486-15.708-6.652-23.636 3.199-5.247 8.576-7.933 15.881-7.933 5.127 0 6.49 0.612 10.664 4.785 6.161 6.161 7.485 12.212 4.099 18.736-3.239 6.241-7.735 9.386-14.39 10.064-4.072 0.415-6.561-0.108-9.602-2.016zM558.925 766.314c-11.903-6.073-12.173-25.249-0.441-31.315 14.464-7.48 30.437 6.45 24.68 21.523-3.724 9.752-15.217 14.395-24.239 9.792zM563.011 291.304c-1.385-0.355-4.086-1.758-6.002-3.118-9.913-7.034-9.595-21.646 0.63-28.938l4.112-2.933h96.354c94.093 0 96.454 0.059 100.62 2.519 4.968 2.934 8.959 9.667 8.959 15.114s-3.991 12.181-8.959 15.114c-4.156 2.454-6.701 2.524-98.731 2.703-51.956 0.101-95.599-0.107-96.984-0.462zM561.931 363.985c-10.519-3.198-15.476-16.544-9.677-26.054 5.067-8.31 0.037-7.934 106.104-7.929 93.094 0.005 96.228 0.082 100.134 2.463 5.102 3.111 8.244 9.127 8.154 15.612-0.075 5.43-2.637 9.759-8.263 13.96-3.434 2.564-4.671 2.6-98.166 2.819-52.078 0.122-96.308-0.27-98.287-0.872zM485.55 962.763c-107.241-7.747-203.003-50.292-278.86-123.894-75.646-73.397-120.965-164.939-135.007-272.709-2.636-20.231-3.629-65.857-1.904-87.538 6.434-80.893 31.718-154.805 75.186-219.788 16.566-24.766 32.183-43.653 55.292-66.868 27.678-27.805 49.765-45.811 77.47-63.154 57.376-35.917 115.943-56.666 184.522-65.37 24.468-3.106 75.035-3.106 99.503 0 87.001 11.043 165.35 44.494 229.865 98.141 14.227 11.83 41.943 39.080 54.079 53.168 118.475 137.537 143.393 334.713 63.034 498.775-32.659 66.677-83.364 126.381-143.563 169.041-58.961 41.783-125.899 67.785-199.006 77.304-18.845 2.454-64.174 4.081-80.61 2.894zM782.864 802.819c8.041-3.72 14.639-9.891 18.595-17.387l3.383-6.411v-534.042l-3.383-6.411c-3.956-7.496-10.554-13.667-18.595-17.387-5.699-2.637-6.417-2.652-123.498-2.652-112.809 0-118.028 0.101-123.99 2.4-8.134 3.137-16.723 11.139-20.405 19.012l-2.946 6.298 0.015 265.761c0.015 264.474 0.028 265.789 2.576 271.429 4.827 10.686 15.334 19.071 26.787 21.379 2.879 0.58 57.096 0.967 120.482 0.859 114.314-0.194 115.294-0.217 120.979-2.848zM475.474 695.262v-74.312l-102.967-0.005c-100.523-0.005-103.064-0.064-107.072-2.508-2.258-1.377-5.231-4.35-6.608-6.608-2.455-4.027-2.503-6.611-2.508-136.104-0.005-144.836-0.498-135.613 7.604-142.429l3.92-3.299h207.63v-37.841l-216.010 0.684-8.468 4.012c-15 7.106-25.191 18.81-30.094 34.561-2.263 7.27-2.373 13.962-2.373 144.059s0.11 136.789 2.373 144.059c4.903 15.752 15.093 27.455 30.094 34.561l8.468 4.012 178.224 0.71v71.713l-8.502 0.008c-11.302 0.009-17.61 1.922-22.513 6.825-6.968 6.968-6.961 19.23 0.016 25.784 5.894 5.537 10.873 6.316 40.761 6.374l28.025 0.055z"></path>
</svg>
