<!-- Generated by IcoMoon.io -->
<svg version="1.1" xmlns="http://www.w3.org/2000/svg" width="1024" height="1024" viewBox="0 0 1024 1024">
<title></title>
<g id="icomoon-ignore">
</g>
<path d="M274.374 743.002c3.612-24.275 19.316-52.023 41.384-73.12 42.248-40.39 109.623-61.506 196.242-61.506s153.993 21.117 196.242 61.506c22.068 21.097 37.772 48.844 41.384 73.12l1.12 7.529h-477.492zM479.473 969.086c-1.988-0.269-9.577-1.081-16.866-1.804-35.264-3.499-77.42-13.939-113.845-28.194-16.335-6.393-50.16-23.155-65.506-32.462-114.787-69.616-193.447-186.185-215.074-318.729-4.581-28.073-5.52-40.983-5.52-75.896s0.939-47.824 5.52-75.896c23.567-144.43 114.388-268.958 243.837-334.334 48.069-24.276 95.838-38.659 150.588-45.339 17.81-2.173 80.976-2.173 98.786 0 112.34 13.707 211.504 65.674 285.417 149.574 63.745 72.357 101.466 158.621 112.996 258.409 2.010 17.395 2.010 77.777 0 95.172-7.862 68.044-26.92 127.067-59.237 183.46-65.762 114.756-178.652 195.535-306.65 219.425-27.906 5.208-40.278 6.302-75.896 6.707-19.215 0.218-36.563 0.177-38.551-0.092zM763.077 798.068c14.971-3.529 26.184-11.99 32.209-24.304 4.351-8.893 5.35-27.421 2.297-42.621-9.658-48.095-41.444-92.544-88.011-123.074-53.662-35.181-137.18-52.968-225.12-47.946-78.76 4.498-136.376 22.432-182.908 56.933-46.652 34.59-78.26 91.015-76.684 136.891 0.38 11.067 0.905 13.795 3.782 19.672 6.097 12.455 17.030 20.828 31.904 24.433 5.764 1.397 47.050 1.686 250.853 1.755 213.674 0.072 244.912-0.143 251.679-1.739zM547.916 508.002c25.885-6.855 45.427-18.007 64.77-36.962 28.489-27.919 43.286-62.886 43.271-102.257-0.026-69.527-47.232-127.36-115.825-141.899-13.828-2.931-42.438-2.931-56.266 0-68.566 14.533-115.798 72.398-115.825 141.899-0.015 38.666 14.543 73.736 42.010 101.202 20.881 20.881 43.772 33.302 73.035 39.631 16.387 3.544 48.357 2.748 64.829-1.614zM499.539 464.983c-38.273-5.256-70.008-33.752-79.671-71.538-3.052-11.934-3.299-33.049-0.534-45.649 2.496-11.374 12.108-31.067 19.228-39.391 12.941-15.131 31.605-27.134 49.947-32.124 10.888-2.962 36.155-2.952 46.984 0.017 33.807 9.271 60.025 35.981 68.656 69.946 3.342 13.152 3.336 34.098-0.015 47.2-8.817 34.475-34.957 60.47-69.982 69.593-8.881 2.313-25.238 3.232-34.611 1.945z"></path>
</svg>
