<svg width="164" height="50" viewBox="0 0 164 50" fill="none" xmlns="http://www.w3.org/2000/svg">
<rect width="164" height="48" rx="24" fill="white" fill-opacity="0.5"/>
<path d="M20.8141 32L25.4941 17.6H28.5041L33.1841 32H31.0141L26.7041 18.86H27.2441L22.9841 32H20.8141ZM23.2441 28.75V26.79H30.7641L30.7641 28.75H23.2441ZM41.3581 32C40.6781 32.1333 40.0115 32.19 39.3581 32.17C38.7048 32.15 38.1215 32.0233 37.6081 31.79C37.0948 31.5567 36.7081 31.19 36.4481 30.69C36.2148 30.2433 36.0881 29.79 36.0681 29.33C36.0548 28.8633 36.0481 28.3367 36.0481 27.75V18.2H38.1481V27.65C38.1481 28.0833 38.1515 28.46 38.1581 28.78C38.1715 29.1 38.2415 29.37 38.3681 29.59C38.6081 30.0033 38.9881 30.24 39.5081 30.3C40.0348 30.3533 40.6515 30.33 41.3581 30.23V32ZM33.9781 22.88V21.2H41.3581V22.88L33.9781 22.88ZM48.6081 32C47.9281 32.1333 47.2615 32.19 46.6081 32.17C45.9548 32.15 45.3715 32.0233 44.8581 31.79C44.3448 31.5567 43.9581 31.19 43.6981 30.69C43.4648 30.2433 43.3381 29.79 43.3181 29.33C43.3048 28.8633 43.2981 28.3367 43.2981 27.75V18.2H45.3981V27.65C45.3981 28.0833 45.4015 28.46 45.4081 28.78C45.4215 29.1 45.4915 29.37 45.6181 29.59C45.8581 30.0033 46.2381 30.24 46.7581 30.3C47.2848 30.3533 47.9015 30.33 48.6081 30.23V32ZM41.2281 22.88V21.2L48.6081 21.2V22.88H41.2281ZM54.1117 32.3C53.3117 32.3 52.6417 32.1533 52.1017 31.86C51.5617 31.56 51.1517 31.1667 50.8717 30.68C50.5984 30.1867 50.4617 29.6467 50.4617 29.06C50.4617 28.5133 50.5584 28.0333 50.7517 27.62C50.9451 27.2067 51.2317 26.8567 51.6117 26.57C51.9917 26.2767 52.4584 26.04 53.0117 25.86C53.4917 25.72 54.0351 25.5967 54.6417 25.49C55.2484 25.3833 55.8851 25.2833 56.5517 25.19C57.2251 25.0967 57.8917 25.0033 58.5517 24.91L57.7917 25.33C57.8051 24.4833 57.6251 23.8567 57.2517 23.45C56.8851 23.0367 56.2517 22.83 55.3517 22.83C54.7851 22.83 54.2651 22.9633 53.7917 23.23C53.3184 23.49 52.9884 23.9233 52.8017 24.53L50.8517 23.93C51.1184 23.0033 51.6251 22.2667 52.3717 21.72C53.1251 21.1733 54.1251 20.9 55.3717 20.9C56.3384 20.9 57.1784 21.0667 57.8917 21.4C58.6117 21.7267 59.1384 22.2467 59.4717 22.96C59.6451 23.3133 59.7517 23.6867 59.7917 24.08C59.8317 24.4733 59.8517 24.8967 59.8517 25.35V32H58.0017V29.53L58.3617 29.85C57.9151 30.6767 57.3451 31.2933 56.6517 31.7C55.9651 32.1 55.1184 32.3 54.1117 32.3ZM54.4817 30.59C55.0751 30.59 55.5851 30.4867 56.0117 30.28C56.4384 30.0667 56.7817 29.7967 57.0417 29.47C57.3017 29.1433 57.4717 28.8033 57.5517 28.45C57.6651 28.13 57.7284 27.77 57.7417 27.37C57.7617 26.97 57.7717 26.65 57.7717 26.41L58.4517 26.66C57.7917 26.76 57.1917 26.85 56.6517 26.93C56.1117 27.01 55.6217 27.09 55.1817 27.17C54.7484 27.2433 54.3617 27.3333 54.0217 27.44C53.7351 27.54 53.4784 27.66 53.2517 27.8C53.0317 27.94 52.8551 28.11 52.7217 28.31C52.5951 28.51 52.5317 28.7533 52.5317 29.04C52.5317 29.32 52.6017 29.58 52.7417 29.82C52.8817 30.0533 53.0951 30.24 53.3817 30.38C53.6684 30.52 54.0351 30.59 54.4817 30.59ZM67.2684 32.3C66.1618 32.3 65.2218 32.0533 64.4484 31.56C63.6751 31.0667 63.0818 30.39 62.6684 29.53C62.2618 28.67 62.0551 27.6933 62.0484 26.6C62.0551 25.4867 62.2684 24.5033 62.6884 23.65C63.1084 22.79 63.7084 22.1167 64.4884 21.63C65.2684 21.1433 66.2051 20.9 67.2984 20.9C68.4784 20.9 69.4851 21.1933 70.3184 21.78C71.1584 22.3667 71.7118 23.17 71.9784 24.19L69.8984 24.79C69.6918 24.1833 69.3518 23.7133 68.8784 23.38C68.4118 23.04 67.8751 22.87 67.2684 22.87C66.5818 22.87 66.0184 23.0333 65.5784 23.36C65.1384 23.68 64.8118 24.12 64.5984 24.68C64.3851 25.24 64.2751 25.88 64.2684 26.6C64.2751 27.7133 64.5284 28.6133 65.0284 29.3C65.5351 29.9867 66.2818 30.33 67.2684 30.33C67.9418 30.33 68.4851 30.1767 68.8984 29.87C69.3184 29.5567 69.6384 29.11 69.8584 28.53L71.9784 29.03C71.6251 30.0833 71.0418 30.8933 70.2284 31.46C69.4151 32.02 68.4284 32.3 67.2684 32.3ZM74.2056 32L74.2156 17.6H76.3356V26.4L80.5756 21.2H83.2356L78.7556 26.6L83.6956 32H80.8556L76.3356 26.8V32H74.2056ZM89.1078 32V17.6H94.9278C95.0678 17.6 95.2411 17.6067 95.4478 17.62C95.6545 17.6267 95.8511 17.6467 96.0378 17.68C96.8378 17.8067 97.5045 18.08 98.0378 18.5C98.5778 18.92 98.9811 19.45 99.2478 20.09C99.5145 20.73 99.6478 21.4367 99.6478 22.21C99.6478 22.99 99.5145 23.7 99.2478 24.34C98.9811 24.98 98.5778 25.51 98.0378 25.93C97.5045 26.35 96.8378 26.6233 96.0378 26.75C95.8511 26.7767 95.6511 26.7967 95.4378 26.81C95.2311 26.8233 95.0611 26.83 94.9278 26.83L91.1978 26.83V32H89.1078ZM91.1978 24.85L94.8478 24.85C94.9811 24.85 95.1278 24.8433 95.2878 24.83C95.4545 24.8167 95.6111 24.7933 95.7578 24.76C96.1845 24.66 96.5278 24.4767 96.7878 24.21C97.0478 23.9367 97.2345 23.6233 97.3478 23.27C97.4611 22.9167 97.5178 22.5633 97.5178 22.21C97.5178 21.8567 97.4611 21.5067 97.3478 21.16C97.2345 20.8067 97.0478 20.4967 96.7878 20.23C96.5278 19.9567 96.1845 19.77 95.7578 19.67C95.6111 19.63 95.4545 19.6033 95.2878 19.59C95.1278 19.5767 94.9811 19.57 94.8478 19.57H91.1978V24.85ZM104.565 32.3C103.765 32.3 103.095 32.1533 102.555 31.86C102.015 31.56 101.605 31.1667 101.325 30.68C101.052 30.1867 100.915 29.6467 100.915 29.06C100.915 28.5133 101.012 28.0333 101.205 27.62C101.398 27.2067 101.685 26.8567 102.065 26.57C102.445 26.2767 102.912 26.04 103.465 25.86C103.945 25.72 104.488 25.5967 105.095 25.49C105.702 25.3833 106.338 25.2833 107.005 25.19C107.678 25.0967 108.345 25.0033 109.005 24.91L108.245 25.33C108.258 24.4833 108.078 23.8567 107.705 23.45C107.338 23.0367 106.705 22.83 105.805 22.83C105.238 22.83 104.718 22.9633 104.245 23.23C103.772 23.49 103.442 23.9233 103.255 24.53L101.305 23.93C101.572 23.0033 102.078 22.2667 102.825 21.72C103.578 21.1733 104.578 20.9 105.825 20.9C106.792 20.9 107.632 21.0667 108.345 21.4C109.065 21.7267 109.592 22.2467 109.925 22.96C110.098 23.3133 110.205 23.6867 110.245 24.08C110.285 24.4733 110.305 24.8967 110.305 25.35V32H108.455V29.53L108.815 29.85C108.368 30.6767 107.798 31.2933 107.105 31.7C106.418 32.1 105.572 32.3 104.565 32.3ZM104.935 30.59C105.528 30.59 106.038 30.4867 106.465 30.28C106.892 30.0667 107.235 29.7967 107.495 29.47C107.755 29.1433 107.925 28.8033 108.005 28.45C108.118 28.13 108.182 27.77 108.195 27.37C108.215 26.97 108.225 26.65 108.225 26.41L108.905 26.66C108.245 26.76 107.645 26.85 107.105 26.93C106.565 27.01 106.075 27.09 105.635 27.17C105.202 27.2433 104.815 27.3333 104.475 27.44C104.188 27.54 103.932 27.66 103.705 27.8C103.485 27.94 103.308 28.11 103.175 28.31C103.048 28.51 102.985 28.7533 102.985 29.04C102.985 29.32 103.055 29.58 103.195 29.82C103.335 30.0533 103.548 30.24 103.835 30.38C104.122 30.52 104.488 30.59 104.935 30.59ZM119.282 32C118.602 32.1333 117.935 32.19 117.282 32.17C116.628 32.15 116.045 32.0233 115.532 31.79C115.018 31.5567 114.632 31.19 114.372 30.69C114.138 30.2433 114.012 29.79 113.992 29.33C113.978 28.8633 113.972 28.3367 113.972 27.75V18.2L116.072 18.2V27.65C116.072 28.0833 116.075 28.46 116.082 28.78C116.095 29.1 116.165 29.37 116.292 29.59C116.532 30.0033 116.912 30.24 117.432 30.3C117.958 30.3533 118.575 30.33 119.282 30.23V32ZM111.902 22.88V21.2L119.282 21.2V22.88H111.902ZM129.339 32V26.69C129.339 26.27 129.302 25.84 129.229 25.4C129.162 24.9533 129.029 24.54 128.829 24.16C128.635 23.78 128.359 23.4733 127.999 23.24C127.645 23.0067 127.182 22.89 126.609 22.89C126.235 22.89 125.882 22.9533 125.549 23.08C125.215 23.2 124.922 23.3967 124.669 23.67C124.422 23.9433 124.225 24.3033 124.079 24.75C123.939 25.1967 123.869 25.74 123.869 26.38L122.569 25.89C122.569 24.91 122.752 24.0467 123.119 23.3C123.485 22.5467 124.012 21.96 124.699 21.54C125.385 21.12 126.215 20.91 127.189 20.91C127.935 20.91 128.562 21.03 129.069 21.27C129.575 21.51 129.985 21.8267 130.299 22.22C130.619 22.6067 130.862 23.03 131.029 23.49C131.195 23.95 131.309 24.4 131.369 24.84C131.429 25.28 131.459 25.6667 131.459 26V32H129.339ZM121.749 32V17.6H123.619V25.37H123.869V32H121.749ZM138.393 32.29C137.08 32.29 136.01 32 135.183 31.42C134.357 30.84 133.85 30.0233 133.663 28.97L135.803 28.64C135.937 29.2 136.243 29.6433 136.723 29.97C137.21 30.29 137.813 30.45 138.533 30.45C139.187 30.45 139.697 30.3167 140.063 30.05C140.437 29.7833 140.623 29.4167 140.623 28.95C140.623 28.6767 140.557 28.4567 140.423 28.29C140.297 28.1167 140.027 27.9533 139.613 27.8C139.2 27.6467 138.57 27.4567 137.723 27.23C136.797 26.99 136.06 26.7333 135.513 26.46C134.973 26.18 134.587 25.8567 134.353 25.49C134.127 25.1167 134.013 24.6667 134.013 24.14C134.013 23.4867 134.187 22.9167 134.533 22.43C134.88 21.9433 135.367 21.5667 135.993 21.3C136.627 21.0333 137.367 20.9 138.213 20.9C139.04 20.9 139.777 21.03 140.423 21.29C141.07 21.55 141.593 21.92 141.993 22.4C142.393 22.8733 142.633 23.43 142.713 24.07L140.573 24.46C140.5 23.94 140.257 23.53 139.843 23.23C139.43 22.93 138.893 22.7667 138.233 22.74C137.6 22.7133 137.087 22.82 136.693 23.06C136.3 23.2933 136.103 23.6167 136.103 24.03C136.103 24.27 136.177 24.4733 136.323 24.64C136.477 24.8067 136.77 24.9667 137.203 25.12C137.637 25.2733 138.277 25.4567 139.123 25.67C140.03 25.9033 140.75 26.1633 141.283 26.45C141.817 26.73 142.197 27.0667 142.423 27.46C142.657 27.8467 142.773 28.3167 142.773 28.87C142.773 29.9367 142.383 30.7733 141.603 31.38C140.83 31.9867 139.76 32.29 138.393 32.29Z" fill="#232A31" fill-opacity="0.5"/>
</svg>