<svg width="217" height="50" viewBox="0 0 217 50" fill="none" xmlns="http://www.w3.org/2000/svg">
<rect width="217" height="48" rx="24" fill="white" fill-opacity="0.5"/>
<path d="M20.6031 32L25.2831 17.6H28.2931L32.9731 32H30.8031L26.4931 18.86H27.0331L22.7731 32H20.6031ZM23.0331 28.75V26.79H30.5531L30.5531 28.75H23.0331ZM33.9672 32V31.67L40.0972 23.07H34.5272V21.2L43.4172 21.2V21.54L37.2972 30.13H43.1172V32H33.9672ZM49.8817 32.29C49.1351 32.29 48.5084 32.17 48.0017 31.93C47.4951 31.69 47.0817 31.3767 46.7617 30.99C46.4484 30.5967 46.2084 30.17 46.0417 29.71C45.8751 29.25 45.7617 28.8 45.7017 28.36C45.6417 27.92 45.6117 27.5333 45.6117 27.2V21.2H47.7317V26.51C47.7317 26.93 47.7651 27.3633 47.8317 27.81C47.9051 28.25 48.0384 28.66 48.2317 29.04C48.4317 29.42 48.7084 29.7267 49.0617 29.96C49.4217 30.1933 49.8884 30.31 50.4617 30.31C50.8351 30.31 51.1884 30.25 51.5217 30.13C51.8551 30.0033 52.1451 29.8033 52.3917 29.53C52.6451 29.2567 52.8417 28.8967 52.9817 28.45C53.1284 28.0033 53.2017 27.46 53.2017 26.82L54.5017 27.31C54.5017 28.29 54.3184 29.1567 53.9517 29.91C53.5851 30.6567 53.0584 31.24 52.3717 31.66C51.6851 32.08 50.8551 32.29 49.8817 32.29ZM53.4517 32V28.88H53.2017V21.2H55.3117V32H53.4517ZM58.3164 32V21.2H60.1764V23.82L59.9164 23.48C60.0497 23.1333 60.2231 22.8167 60.4364 22.53C60.6497 22.2367 60.8964 21.9967 61.1764 21.81C61.4497 21.61 61.7531 21.4567 62.0864 21.35C62.4264 21.2367 62.7731 21.17 63.1264 21.15C63.4797 21.1233 63.8197 21.14 64.1464 21.2V23.16C63.7931 23.0667 63.3997 23.04 62.9664 23.08C62.5397 23.12 62.1464 23.2567 61.7864 23.49C61.4464 23.71 61.1764 23.9767 60.9764 24.29C60.7831 24.6033 60.6431 24.9533 60.5564 25.34C60.4697 25.72 60.4264 26.1233 60.4264 26.55V32H58.3164ZM70.8455 32.3C69.7721 32.3 68.8288 32.0667 68.0155 31.6C67.2088 31.1267 66.5788 30.47 66.1255 29.63C65.6788 28.7833 65.4555 27.8033 65.4555 26.69C65.4555 25.51 65.6755 24.4867 66.1155 23.62C66.5621 22.7533 67.1821 22.0833 67.9755 21.61C68.7688 21.1367 69.6921 20.9 70.7455 20.9C71.8455 20.9 72.7821 21.1567 73.5555 21.67C74.3288 22.1767 74.9055 22.9 75.2855 23.84C75.6721 24.78 75.8255 25.8967 75.7455 27.19H73.6555V26.43C73.6421 25.1767 73.4021 24.25 72.9355 23.65C72.4755 23.05 71.7721 22.75 70.8255 22.75C69.7788 22.75 68.9921 23.08 68.4655 23.74C67.9388 24.4 67.6755 25.3533 67.6755 26.6C67.6755 27.7867 67.9388 28.7067 68.4655 29.36C68.9921 30.0067 69.7521 30.33 70.7455 30.33C71.3988 30.33 71.9621 30.1833 72.4355 29.89C72.9155 29.59 73.2888 29.1633 73.5555 28.61L75.6055 29.26C75.1855 30.2267 74.5488 30.9767 73.6955 31.51C72.8421 32.0367 71.8921 32.3 70.8455 32.3ZM66.9955 27.19V25.56H74.7055V27.19H66.9955ZM81.393 32L86.073 17.6H89.083L93.763 32L91.593 32L87.283 18.86H87.823L83.563 32H81.393ZM83.823 28.75V26.79H91.343V28.75H83.823ZM95.757 32V17.6L100.267 17.6C100.4 17.6 100.647 17.6033 101.007 17.61C101.374 17.6167 101.724 17.6433 102.057 17.69C103.184 17.83 104.13 18.2333 104.897 18.9C105.67 19.5667 106.254 20.4133 106.647 21.44C107.04 22.46 107.237 23.58 107.237 24.8C107.237 26.0267 107.04 27.1533 106.647 28.18C106.254 29.2 105.67 30.0433 104.897 30.71C104.13 31.37 103.184 31.77 102.057 31.91C101.724 31.9567 101.374 31.9833 101.007 31.99C100.647 31.9967 100.4 32 100.267 32H95.757ZM97.897 30.01H100.267C100.494 30.01 100.764 30.0033 101.077 29.99C101.39 29.9767 101.667 29.95 101.907 29.91C102.64 29.77 103.234 29.4533 103.687 28.96C104.147 28.46 104.484 27.8467 104.697 27.12C104.91 26.3933 105.017 25.62 105.017 24.8C105.017 23.9533 104.907 23.17 104.687 22.45C104.467 21.7233 104.127 21.1167 103.667 20.63C103.214 20.1367 102.627 19.8233 101.907 19.69C101.667 19.6433 101.387 19.6167 101.067 19.61C100.754 19.5967 100.487 19.59 100.267 19.59L97.897 19.59V30.01ZM119.98 32.3C118.54 32.3 117.313 31.9867 116.3 31.36C115.286 30.7267 114.51 29.8467 113.97 28.72C113.436 27.5933 113.17 26.2867 113.17 24.8C113.17 23.3133 113.436 22.0067 113.97 20.88C114.51 19.7533 115.286 18.8767 116.3 18.25C117.313 17.6167 118.54 17.3 119.98 17.3C121.64 17.3 123.013 17.72 124.1 18.56C125.193 19.4 125.953 20.53 126.38 21.95L124.26 22.52C123.98 21.5133 123.48 20.7233 122.76 20.15C122.046 19.5767 121.12 19.29 119.98 19.29C118.96 19.29 118.11 19.52 117.43 19.98C116.75 20.44 116.236 21.0833 115.89 21.91C115.55 22.7367 115.38 23.7 115.38 24.8C115.373 25.9 115.54 26.8633 115.88 27.69C116.226 28.5167 116.74 29.16 117.42 29.62C118.106 30.08 118.96 30.31 119.98 30.31C121.12 30.31 122.046 30.0233 122.76 29.45C123.48 28.87 123.98 28.08 124.26 27.08L126.38 27.65C125.953 29.07 125.193 30.2 124.1 31.04C123.013 31.88 121.64 32.3 119.98 32.3ZM133.469 32.3C132.389 32.3 131.452 32.0567 130.659 31.57C129.866 31.0833 129.252 30.4133 128.819 29.56C128.392 28.7 128.179 27.71 128.179 26.59C128.179 25.4633 128.399 24.4733 128.839 23.62C129.279 22.76 129.896 22.0933 130.689 21.62C131.482 21.14 132.409 20.9 133.469 20.9C134.549 20.9 135.486 21.1433 136.279 21.63C137.072 22.1167 137.686 22.7867 138.119 23.64C138.552 24.4933 138.769 25.4767 138.769 26.59C138.769 27.7167 138.549 28.71 138.109 29.57C137.676 30.4233 137.062 31.0933 136.269 31.58C135.476 32.06 134.542 32.3 133.469 32.3ZM133.469 30.33C134.502 30.33 135.272 29.9833 135.779 29.29C136.292 28.59 136.549 27.69 136.549 26.59C136.549 25.4633 136.289 24.5633 135.769 23.89C135.256 23.21 134.489 22.87 133.469 22.87C132.769 22.87 132.192 23.03 131.739 23.35C131.286 23.6633 130.949 24.1 130.729 24.66C130.509 25.2133 130.399 25.8567 130.399 26.59C130.399 27.7233 130.659 28.63 131.179 29.31C131.699 29.99 132.462 30.33 133.469 30.33ZM148.746 32V26.69C148.746 26.27 148.71 25.84 148.636 25.4C148.57 24.9533 148.436 24.54 148.236 24.16C148.043 23.78 147.766 23.4733 147.406 23.24C147.053 23.0067 146.59 22.89 146.016 22.89C145.643 22.89 145.29 22.9533 144.956 23.08C144.623 23.2 144.33 23.3967 144.076 23.67C143.83 23.9433 143.633 24.3033 143.486 24.75C143.346 25.1967 143.276 25.74 143.276 26.38L141.976 25.89C141.976 24.91 142.16 24.0467 142.526 23.3C142.893 22.5467 143.42 21.96 144.106 21.54C144.793 21.12 145.623 20.91 146.596 20.91C147.343 20.91 147.97 21.03 148.476 21.27C148.983 21.51 149.393 21.8267 149.706 22.22C150.026 22.6067 150.27 23.03 150.436 23.49C150.603 23.95 150.716 24.4 150.776 24.84C150.836 25.28 150.866 25.6667 150.866 26V32H148.746ZM141.156 32V21.2H143.026V24.32H143.276V32H141.156ZM161.251 32V26.69C161.251 26.27 161.214 25.84 161.141 25.4C161.074 24.9533 160.941 24.54 160.741 24.16C160.548 23.78 160.271 23.4733 159.911 23.24C159.558 23.0067 159.094 22.89 158.521 22.89C158.148 22.89 157.794 22.9533 157.461 23.08C157.128 23.2 156.834 23.3967 156.581 23.67C156.334 23.9433 156.138 24.3033 155.991 24.75C155.851 25.1967 155.781 25.74 155.781 26.38L154.481 25.89C154.481 24.91 154.664 24.0467 155.031 23.3C155.398 22.5467 155.924 21.96 156.611 21.54C157.298 21.12 158.128 20.91 159.101 20.91C159.848 20.91 160.474 21.03 160.981 21.27C161.488 21.51 161.898 21.8267 162.211 22.22C162.531 22.6067 162.774 23.03 162.941 23.49C163.108 23.95 163.221 24.4 163.281 24.84C163.341 25.28 163.371 25.6667 163.371 26V32H161.251ZM153.661 32V21.2H155.531V24.32H155.781V32H153.661ZM170.829 32.3C169.756 32.3 168.812 32.0667 167.999 31.6C167.192 31.1267 166.562 30.47 166.109 29.63C165.662 28.7833 165.439 27.8033 165.439 26.69C165.439 25.51 165.659 24.4867 166.099 23.62C166.546 22.7533 167.166 22.0833 167.959 21.61C168.752 21.1367 169.676 20.9 170.729 20.9C171.829 20.9 172.766 21.1567 173.539 21.67C174.312 22.1767 174.889 22.9 175.269 23.84C175.656 24.78 175.809 25.8967 175.729 27.19H173.639V26.43C173.626 25.1767 173.386 24.25 172.919 23.65C172.459 23.05 171.756 22.75 170.809 22.75C169.762 22.75 168.976 23.08 168.449 23.74C167.922 24.4 167.659 25.3533 167.659 26.6C167.659 27.7867 167.922 28.7067 168.449 29.36C168.976 30.0067 169.736 30.33 170.729 30.33C171.382 30.33 171.946 30.1833 172.419 29.89C172.899 29.59 173.272 29.1633 173.539 28.61L175.589 29.26C175.169 30.2267 174.532 30.9767 173.679 31.51C172.826 32.0367 171.876 32.3 170.829 32.3ZM166.979 27.19V25.56H174.689V27.19H166.979ZM182.793 32.3C181.686 32.3 180.746 32.0533 179.973 31.56C179.199 31.0667 178.606 30.39 178.193 29.53C177.786 28.67 177.579 27.6933 177.573 26.6C177.579 25.4867 177.793 24.5033 178.213 23.65C178.633 22.79 179.233 22.1167 180.013 21.63C180.793 21.1433 181.729 20.9 182.823 20.9C184.003 20.9 185.009 21.1933 185.843 21.78C186.683 22.3667 187.236 23.17 187.503 24.19L185.423 24.79C185.216 24.1833 184.876 23.7133 184.403 23.38C183.936 23.04 183.399 22.87 182.793 22.87C182.106 22.87 181.543 23.0333 181.103 23.36C180.663 23.68 180.336 24.12 180.123 24.68C179.909 25.24 179.799 25.88 179.793 26.6C179.799 27.7133 180.053 28.6133 180.553 29.3C181.059 29.9867 181.806 30.33 182.793 30.33C183.466 30.33 184.009 30.1767 184.423 29.87C184.843 29.5567 185.163 29.11 185.383 28.53L187.503 29.03C187.149 30.0833 186.566 30.8933 185.753 31.46C184.939 32.02 183.953 32.3 182.793 32.3ZM195.92 32C195.24 32.1333 194.573 32.19 193.92 32.17C193.267 32.15 192.683 32.0233 192.17 31.79C191.657 31.5567 191.27 31.19 191.01 30.69C190.777 30.2433 190.65 29.79 190.63 29.33C190.617 28.8633 190.61 28.3367 190.61 27.75V18.2H192.71V27.65C192.71 28.0833 192.713 28.46 192.72 28.78C192.733 29.1 192.803 29.37 192.93 29.59C193.17 30.0033 193.55 30.24 194.07 30.3C194.597 30.3533 195.213 30.33 195.92 30.23V32ZM188.54 22.88V21.2H195.92V22.88H188.54Z" fill="#232A31" fill-opacity="0.5"/>
</svg>
