<svg xmlns="http://www.w3.org/2000/svg" fill="none" viewBox="64 54 780 780">
<path d="M353.777 343.777C299.479 397.753 298.945 489.717 353.777 544.223" stroke="#232A31" stroke-opacity="0.1"/>
<path d="M353.777 544.223C407.753 598.521 499.716 599.055 554.223 544.223" stroke="#232A31" stroke-opacity="0.1"/>
<path d="M554.223 544.223C608.521 490.247 609.055 398.284 554.223 343.777" stroke="#232A31" stroke-opacity="0.1"/>
<path d="M554.223 343.777C499.717 288.945 407.753 289.479 353.777 343.777" stroke="#232A31" stroke-opacity="0.1"/>
<path d="M187.575 177.575C43.5169 321.06 42.1018 565.531 187.575 710.425" stroke="#232A31" stroke-opacity="0.1"/>
<path d="M187.574 710.425C331.06 854.483 575.529 855.899 720.425 710.425" stroke="#232A31" stroke-opacity="0.1"/>
<path d="M720.425 710.425C864.483 566.94 865.899 322.47 720.425 177.575" stroke="#232A31" stroke-opacity="0.1"/>
<path d="M720.425 177.575C575.531 32.1018 331.06 33.5169 187.574 177.575" stroke="#232A31" stroke-opacity="0.1"/>
<path d="M829 457L594 457" stroke="#232A31" stroke-opacity="0.1"/>
<path d="M452 818L453 586" stroke="#232A31" stroke-opacity="0.1"/>
<path d="M314 457L80 457" stroke="#232A31" stroke-opacity="0.1"/>
<g filter="url(#filter0_dif_19_1030)">
<path d="M844 444C844 659.391 669.391 834 454 834C238.609 834 64 659.391 64 444C64 228.609 238.609 54 454 54C669.391 54 844 228.609 844 444Z" fill="white" fill-opacity="0.01" shape-rendering="crispEdges"/>
</g>
<defs>
<filter id="filter0_dif_19_1030" x="0" y="-2" width="908" height="908" filterUnits="userSpaceOnUse" color-interpolation-filters="sRGB">
<feFlood flood-opacity="0" result="BackgroundImageFix"/>
<feColorMatrix in="SourceAlpha" type="matrix" values="0 0 0 0 0 0 0 0 0 0 0 0 0 0 0 0 0 0 127 0" result="hardAlpha"/>
<feOffset dy="8"/>
<feGaussianBlur stdDeviation="32"/>
<feComposite in2="hardAlpha" operator="out"/>
<feColorMatrix type="matrix" values="0 0 0 0 1 0 0 0 0 1 0 0 0 0 1 0 0 0 0.35 0"/>
<feBlend mode="normal" in2="BackgroundImageFix" result="effect1_dropShadow_19_1030"/>
<feBlend mode="normal" in="SourceGraphic" in2="effect1_dropShadow_19_1030" result="shape"/>
<feColorMatrix in="SourceAlpha" type="matrix" values="0 0 0 0 0 0 0 0 0 0 0 0 0 0 0 0 0 0 127 0" result="hardAlpha"/>
<feOffset dy="12"/>
<feGaussianBlur stdDeviation="32"/>
<feComposite in2="hardAlpha" operator="arithmetic" k2="-1" k3="1"/>
<feColorMatrix type="matrix" values="0 0 0 0 0 0 0 0 0 0 0 0 0 0 0 0 0 0 0.09 0"/>
<feBlend mode="normal" in2="shape" result="effect2_innerShadow_19_1030"/>
<feGaussianBlur stdDeviation="3" result="effect3_foregroundBlur_19_1030"/>
</filter>
</defs>
</svg>
