<svg width="85" height="48" viewBox="0 0 85 48" fill="none" xmlns="http://www.w3.org/2000/svg">
<rect width="85" height="48" rx="24" fill="white" fill-opacity="0.5"/>
<path d="M21.4027 32L21.4027 17.6H23.2927L28.5127 28.43L33.7027 17.6H35.6127V31.99L33.6327 31.99V22.14L28.9827 32H28.0327L23.3727 22.14L23.3727 32H21.4027ZM38.8145 19.43V17.4H40.9045V19.43H38.8145ZM38.8145 32V21.2H40.9045V32H38.8145ZM48.2374 32.29C46.9241 32.29 45.8541 32 45.0274 31.42C44.2008 30.84 43.6941 30.0233 43.5074 28.97L45.6474 28.64C45.7808 29.2 46.0874 29.6433 46.5674 29.97C47.0541 30.29 47.6574 30.45 48.3774 30.45C49.0308 30.45 49.5408 30.3167 49.9074 30.05C50.2808 29.7833 50.4674 29.4167 50.4674 28.95C50.4674 28.6767 50.4008 28.4567 50.2674 28.29C50.1408 28.1167 49.8708 27.9533 49.4574 27.8C49.0441 27.6467 48.4141 27.4567 47.5674 27.23C46.6408 26.99 45.9041 26.7333 45.3574 26.46C44.8174 26.18 44.4308 25.8567 44.1974 25.49C43.9708 25.1167 43.8574 24.6667 43.8574 24.14C43.8574 23.4867 44.0308 22.9167 44.3774 22.43C44.7241 21.9433 45.2108 21.5667 45.8374 21.3C46.4708 21.0333 47.2108 20.9 48.0574 20.9C48.8841 20.9 49.6208 21.03 50.2674 21.29C50.9141 21.55 51.4374 21.92 51.8374 22.4C52.2374 22.8733 52.4774 23.43 52.5574 24.07L50.4174 24.46C50.3441 23.94 50.1008 23.53 49.6874 23.23C49.2741 22.93 48.7374 22.7667 48.0774 22.74C47.4441 22.7133 46.9308 22.82 46.5374 23.06C46.1441 23.2933 45.9474 23.6167 45.9474 24.03C45.9474 24.27 46.0208 24.4733 46.1674 24.64C46.3208 24.8067 46.6141 24.9667 47.0474 25.12C47.4808 25.2733 48.1208 25.4567 48.9674 25.67C49.8741 25.9033 50.5941 26.1633 51.1274 26.45C51.6608 26.73 52.0408 27.0667 52.2674 27.46C52.5008 27.8467 52.6174 28.3167 52.6174 28.87C52.6174 29.9367 52.2274 30.7733 51.4474 31.38C50.6741 31.9867 49.6041 32.29 48.2374 32.29ZM59.6501 32.3C58.5434 32.3 57.6034 32.0533 56.8301 31.56C56.0567 31.0667 55.4634 30.39 55.0501 29.53C54.6434 28.67 54.4367 27.6933 54.4301 26.6C54.4367 25.4867 54.6501 24.5033 55.0701 23.65C55.4901 22.79 56.0901 22.1167 56.8701 21.63C57.6501 21.1433 58.5867 20.9 59.6801 20.9C60.8601 20.9 61.8667 21.1933 62.7001 21.78C63.5401 22.3667 64.0934 23.17 64.3601 24.19L62.2801 24.79C62.0734 24.1833 61.7334 23.7133 61.2601 23.38C60.7934 23.04 60.2567 22.87 59.6501 22.87C58.9634 22.87 58.4001 23.0333 57.9601 23.36C57.5201 23.68 57.1934 24.12 56.9801 24.68C56.7667 25.24 56.6567 25.88 56.6501 26.6C56.6567 27.7133 56.9101 28.6133 57.4101 29.3C57.9167 29.9867 58.6634 30.33 59.6501 30.33C60.3234 30.33 60.8667 30.1767 61.2801 29.87C61.7001 29.5567 62.0201 29.11 62.2401 28.53L64.3601 29.03C64.0067 30.0833 63.4234 30.8933 62.6101 31.46C61.7967 32.02 60.8101 32.3 59.6501 32.3Z" fill="#232A31" fill-opacity="0.5"/>
</svg>
