<svg width="142" height="50" viewBox="0 0 142 50" fill="none" xmlns="http://www.w3.org/2000/svg">
<rect width="134" height="48" rx="24" fill="white" fill-opacity="0.5"/>
<path d="M21.8895 32L21.8895 17.6H23.7795L28.9995 28.43L34.1895 17.6H36.0995V31.99L34.1195 31.99V22.14L29.4695 32H28.5195L23.8595 22.14L23.8595 32H21.8895ZM44.3212 32.3C43.2878 32.3 42.3545 32.1233 41.5212 31.77C40.6945 31.41 40.0112 30.9 39.4712 30.24C38.9378 29.5733 38.5912 28.7833 38.4312 27.87L40.6112 27.54C40.8312 28.42 41.2912 29.1067 41.9912 29.6C42.6912 30.0867 43.5078 30.33 44.4412 30.33C45.0212 30.33 45.5545 30.24 46.0412 30.06C46.5278 29.8733 46.9178 29.61 47.2112 29.27C47.5112 28.9233 47.6612 28.51 47.6612 28.03C47.6612 27.77 47.6145 27.54 47.5212 27.34C47.4345 27.14 47.3112 26.9667 47.1512 26.82C46.9978 26.6667 46.8078 26.5367 46.5812 26.43C46.3612 26.3167 46.1178 26.22 45.8512 26.14L42.1612 25.05C41.8012 24.9433 41.4345 24.8067 41.0612 24.64C40.6878 24.4667 40.3445 24.2433 40.0312 23.97C39.7245 23.69 39.4745 23.3467 39.2812 22.94C39.0878 22.5267 38.9912 22.0267 38.9912 21.44C38.9912 20.5533 39.2178 19.8033 39.6712 19.19C40.1312 18.57 40.7512 18.1033 41.5312 17.79C42.3112 17.47 43.1845 17.31 44.1512 17.31C45.1245 17.3233 45.9945 17.4967 46.7612 17.83C47.5345 18.1633 48.1745 18.6433 48.6812 19.27C49.1945 19.89 49.5478 20.6433 49.7412 21.53L47.5012 21.91C47.4012 21.37 47.1878 20.9067 46.8612 20.52C46.5345 20.1267 46.1345 19.8267 45.6612 19.62C45.1878 19.4067 44.6745 19.2967 44.1212 19.29C43.5878 19.2767 43.0978 19.3567 42.6512 19.53C42.2112 19.7033 41.8578 19.9467 41.5912 20.26C41.3312 20.5733 41.2012 20.9333 41.2012 21.34C41.2012 21.74 41.3178 22.0633 41.5512 22.31C41.7845 22.5567 42.0712 22.7533 42.4112 22.9C42.7578 23.04 43.1012 23.1567 43.4412 23.25L46.1012 24C46.4345 24.0933 46.8112 24.22 47.2312 24.38C47.6578 24.5333 48.0678 24.75 48.4612 25.03C48.8612 25.31 49.1912 25.6833 49.4512 26.15C49.7112 26.61 49.8412 27.19 49.8412 27.89C49.8412 28.6167 49.6945 29.2567 49.4012 29.81C49.1078 30.3567 48.7045 30.8167 48.1912 31.19C47.6845 31.5567 47.0978 31.8333 46.4312 32.02C45.7645 32.2067 45.0612 32.3 44.3212 32.3ZM62.2662 32.3C61.2995 32.3 60.4095 32.1333 59.5962 31.8C58.7828 31.46 58.0762 30.9667 57.4762 30.32C56.8762 29.6733 56.4095 28.8867 56.0762 27.96C55.7428 27.0333 55.5762 25.98 55.5762 24.8C55.5762 23.2467 55.8595 21.9133 56.4262 20.8C56.9928 19.68 57.7795 18.82 58.7862 18.22C59.7928 17.6133 60.9528 17.31 62.2662 17.31C63.9595 17.31 65.3095 17.7033 66.3162 18.49C67.3295 19.2767 68.0195 20.3633 68.3862 21.75L66.2662 22.13C65.9728 21.27 65.4995 20.5833 64.8462 20.07C64.1928 19.5567 63.3728 19.2967 62.3862 19.29C61.3662 19.2833 60.5162 19.51 59.8362 19.97C59.1628 20.43 58.6562 21.0767 58.3162 21.91C57.9762 22.7367 57.8028 23.7 57.7962 24.8C57.7895 25.9 57.9562 26.8633 58.2962 27.69C58.6362 28.51 59.1462 29.15 59.8262 29.61C60.5128 30.07 61.3662 30.3033 62.3862 30.31C63.2062 30.3233 63.9095 30.1733 64.4962 29.86C65.0895 29.54 65.5595 29.0733 65.9062 28.46C66.2528 27.8467 66.4762 27.0933 66.5762 26.2H63.7762V24.52H68.7962C68.8095 24.64 68.8195 24.8 68.8262 25C68.8328 25.1933 68.8362 25.3167 68.8362 25.37C68.8362 26.7033 68.5795 27.8933 68.0662 28.94C67.5528 29.9867 66.8062 30.81 65.8262 31.41C64.8462 32.0033 63.6595 32.3 62.2662 32.3ZM71.0293 32V21.2H72.8893V23.82L72.6293 23.48C72.7626 23.1333 72.936 22.8167 73.1493 22.53C73.3626 22.2367 73.6093 21.9967 73.8893 21.81C74.1626 21.61 74.466 21.4567 74.7993 21.35C75.1393 21.2367 75.486 21.17 75.8393 21.15C76.1926 21.1233 76.5326 21.14 76.8593 21.2V23.16C76.506 23.0667 76.1126 23.04 75.6793 23.08C75.2526 23.12 74.8593 23.2567 74.4993 23.49C74.1593 23.71 73.8893 23.9767 73.6893 24.29C73.496 24.6033 73.356 24.9533 73.2693 25.34C73.1826 25.72 73.1393 26.1233 73.1393 26.55V32H71.0293ZM81.7012 32.3C80.9012 32.3 80.2312 32.1533 79.6912 31.86C79.1512 31.56 78.7412 31.1667 78.4612 30.68C78.1878 30.1867 78.0512 29.6467 78.0512 29.06C78.0512 28.5133 78.1478 28.0333 78.3412 27.62C78.5345 27.2067 78.8212 26.8567 79.2012 26.57C79.5812 26.2767 80.0478 26.04 80.6012 25.86C81.0812 25.72 81.6245 25.5967 82.2312 25.49C82.8378 25.3833 83.4745 25.2833 84.1412 25.19C84.8145 25.0967 85.4812 25.0033 86.1412 24.91L85.3812 25.33C85.3945 24.4833 85.2145 23.8567 84.8412 23.45C84.4745 23.0367 83.8412 22.83 82.9412 22.83C82.3745 22.83 81.8545 22.9633 81.3812 23.23C80.9078 23.49 80.5778 23.9233 80.3912 24.53L78.4412 23.93C78.7078 23.0033 79.2145 22.2667 79.9612 21.72C80.7145 21.1733 81.7145 20.9 82.9612 20.9C83.9278 20.9 84.7678 21.0667 85.4812 21.4C86.2012 21.7267 86.7278 22.2467 87.0612 22.96C87.2345 23.3133 87.3412 23.6867 87.3812 24.08C87.4212 24.4733 87.4412 24.8967 87.4412 25.35V32H85.5912V29.53L85.9512 29.85C85.5045 30.6767 84.9345 31.2933 84.2412 31.7C83.5545 32.1 82.7078 32.3 81.7012 32.3ZM82.0712 30.59C82.6645 30.59 83.1745 30.4867 83.6012 30.28C84.0278 30.0667 84.3712 29.7967 84.6312 29.47C84.8912 29.1433 85.0612 28.8033 85.1412 28.45C85.2545 28.13 85.3178 27.77 85.3312 27.37C85.3512 26.97 85.3612 26.65 85.3612 26.41L86.0412 26.66C85.3812 26.76 84.7812 26.85 84.2412 26.93C83.7012 27.01 83.2112 27.09 82.7712 27.17C82.3378 27.2433 81.9512 27.3333 81.6112 27.44C81.3245 27.54 81.0678 27.66 80.8412 27.8C80.6212 27.94 80.4445 28.11 80.3112 28.31C80.1845 28.51 80.1212 28.7533 80.1212 29.04C80.1212 29.32 80.1912 29.58 80.3312 29.82C80.4712 30.0533 80.6845 30.24 80.9712 30.38C81.2578 30.52 81.6245 30.59 82.0712 30.59ZM95.3079 32.3C94.2746 32.3 93.4079 32.05 92.7079 31.55C92.0079 31.0433 91.4779 30.36 91.1179 29.5C90.7579 28.64 90.5779 27.67 90.5779 26.59C90.5779 25.51 90.7546 24.54 91.1079 23.68C91.4679 22.82 91.9946 22.1433 92.6879 21.65C93.3879 21.15 94.2479 20.9 95.2679 20.9C96.2812 20.9 97.1546 21.15 97.8879 21.65C98.6279 22.1433 99.1979 22.82 99.5979 23.68C99.9979 24.5333 100.198 25.5033 100.198 26.59C100.198 27.67 99.9979 28.6433 99.5979 29.51C99.2046 30.37 98.6412 31.05 97.9079 31.55C97.1812 32.05 96.3146 32.3 95.3079 32.3ZM90.2279 36.8V21.2H92.0879V28.97H92.3279V36.8H90.2279ZM95.0179 30.41C95.6846 30.41 96.2346 30.24 96.6679 29.9C97.1079 29.56 97.4346 29.1033 97.6479 28.53C97.8679 27.95 97.9779 27.3033 97.9779 26.59C97.9779 25.8833 97.8679 25.2433 97.6479 24.67C97.4346 24.0967 97.1046 23.64 96.6579 23.3C96.2112 22.96 95.6412 22.79 94.9479 22.79C94.2946 22.79 93.7546 22.95 93.3279 23.27C92.9079 23.59 92.5946 24.0367 92.3879 24.61C92.1879 25.1833 92.0879 25.8433 92.0879 26.59C92.0879 27.3367 92.1879 27.9967 92.3879 28.57C92.5879 29.1433 92.9046 29.5933 93.3379 29.92C93.7712 30.2467 94.3312 30.41 95.0179 30.41ZM110.186 32V26.69C110.186 26.27 110.149 25.84 110.076 25.4C110.009 24.9533 109.876 24.54 109.676 24.16C109.483 23.78 109.206 23.4733 108.846 23.24C108.493 23.0067 108.029 22.89 107.456 22.89C107.083 22.89 106.729 22.9533 106.396 23.08C106.063 23.2 105.769 23.3967 105.516 23.67C105.269 23.9433 105.073 24.3033 104.926 24.75C104.786 25.1967 104.716 25.74 104.716 26.38L103.416 25.89C103.416 24.91 103.599 24.0467 103.966 23.3C104.333 22.5467 104.859 21.96 105.546 21.54C106.233 21.12 107.063 20.91 108.036 20.91C108.783 20.91 109.409 21.03 109.916 21.27C110.423 21.51 110.833 21.8267 111.146 22.22C111.466 22.6067 111.709 23.03 111.876 23.49C112.043 23.95 112.156 24.4 112.216 24.84C112.276 25.28 112.306 25.6667 112.306 26V32H110.186ZM102.596 32V17.6H104.466V25.37H104.716V32H102.596Z" fill="#232A31" fill-opacity="0.5"/>
</svg>