<svg width="145" height="50" viewBox="0 0 145 50" fill="none" xmlns="http://www.w3.org/2000/svg">
<rect width="145" height="48" rx="24" fill="white" fill-opacity="0.5"/>
<path d="M21.7621 32L21.7621 17.6H27.5821C27.7221 17.6 27.8954 17.6067 28.1021 17.62C28.3088 17.6267 28.5054 17.6467 28.6921 17.68C29.4921 17.8067 30.1588 18.08 30.6921 18.5C31.2321 18.92 31.6354 19.45 31.9021 20.09C32.1688 20.73 32.3021 21.4367 32.3021 22.21C32.3021 22.99 32.1688 23.7 31.9021 24.34C31.6354 24.98 31.2321 25.51 30.6921 25.93C30.1588 26.35 29.4921 26.6233 28.6921 26.75C28.5054 26.7767 28.3054 26.7967 28.0921 26.81C27.8854 26.8233 27.7154 26.83 27.5821 26.83H23.8521V32H21.7621ZM23.8521 24.85H27.5021C27.6354 24.85 27.7821 24.8433 27.9421 24.83C28.1088 24.8167 28.2654 24.7933 28.4121 24.76C28.8388 24.66 29.1821 24.4767 29.4421 24.21C29.7021 23.9367 29.8888 23.6233 30.0021 23.27C30.1154 22.9167 30.1721 22.5633 30.1721 22.21C30.1721 21.8567 30.1154 21.5067 30.0021 21.16C29.8888 20.8067 29.7021 20.4967 29.4421 20.23C29.1821 19.9567 28.8388 19.77 28.4121 19.67C28.2654 19.63 28.1088 19.6033 27.9421 19.59C27.7821 19.5767 27.6354 19.57 27.5021 19.57H23.8521L23.8521 24.85ZM37.2191 32.3C36.4191 32.3 35.7491 32.1533 35.2091 31.86C34.6691 31.56 34.2591 31.1667 33.9791 30.68C33.7058 30.1867 33.5691 29.6467 33.5691 29.06C33.5691 28.5133 33.6658 28.0333 33.8591 27.62C34.0525 27.2067 34.3391 26.8567 34.7191 26.57C35.0991 26.2767 35.5658 26.04 36.1191 25.86C36.5991 25.72 37.1425 25.5967 37.7491 25.49C38.3558 25.3833 38.9925 25.2833 39.6591 25.19C40.3325 25.0967 40.9991 25.0033 41.6591 24.91L40.8991 25.33C40.9125 24.4833 40.7325 23.8567 40.3591 23.45C39.9925 23.0367 39.3591 22.83 38.4591 22.83C37.8925 22.83 37.3725 22.9633 36.8991 23.23C36.4258 23.49 36.0958 23.9233 35.9091 24.53L33.9591 23.93C34.2258 23.0033 34.7325 22.2667 35.4791 21.72C36.2325 21.1733 37.2325 20.9 38.4791 20.9C39.4458 20.9 40.2858 21.0667 40.9991 21.4C41.7191 21.7267 42.2458 22.2467 42.5791 22.96C42.7525 23.3133 42.8591 23.6867 42.8991 24.08C42.9391 24.4733 42.9591 24.8967 42.9591 25.35V32H41.1091V29.53L41.4691 29.85C41.0225 30.6767 40.4525 31.2933 39.7591 31.7C39.0725 32.1 38.2258 32.3 37.2191 32.3ZM37.5891 30.59C38.1825 30.59 38.6925 30.4867 39.1191 30.28C39.5458 30.0667 39.8891 29.7967 40.1491 29.47C40.4091 29.1433 40.5791 28.8033 40.6591 28.45C40.7725 28.13 40.8358 27.77 40.8491 27.37C40.8691 26.97 40.8791 26.65 40.8791 26.41L41.5591 26.66C40.8991 26.76 40.2991 26.85 39.7591 26.93C39.2191 27.01 38.7291 27.09 38.2891 27.17C37.8558 27.2433 37.4691 27.3333 37.1291 27.44C36.8425 27.54 36.5858 27.66 36.3591 27.8C36.1391 27.94 35.9625 28.11 35.8291 28.31C35.7025 28.51 35.6391 28.7533 35.6391 29.04C35.6391 29.32 35.7091 29.58 35.8491 29.82C35.9891 30.0533 36.2025 30.24 36.4891 30.38C36.7758 30.52 37.1425 30.59 37.5891 30.59ZM49.8859 32.29C48.5725 32.29 47.5025 32 46.6759 31.42C45.8492 30.84 45.3425 30.0233 45.1559 28.97L47.2959 28.64C47.4292 29.2 47.7359 29.6433 48.2159 29.97C48.7025 30.29 49.3059 30.45 50.0259 30.45C50.6792 30.45 51.1892 30.3167 51.5559 30.05C51.9292 29.7833 52.1159 29.4167 52.1159 28.95C52.1159 28.6767 52.0492 28.4567 51.9159 28.29C51.7892 28.1167 51.5192 27.9533 51.1059 27.8C50.6925 27.6467 50.0625 27.4567 49.2159 27.23C48.2892 26.99 47.5525 26.7333 47.0059 26.46C46.4659 26.18 46.0792 25.8567 45.8459 25.49C45.6192 25.1167 45.5059 24.6667 45.5059 24.14C45.5059 23.4867 45.6792 22.9167 46.0259 22.43C46.3725 21.9433 46.8592 21.5667 47.4859 21.3C48.1192 21.0333 48.8592 20.9 49.7059 20.9C50.5325 20.9 51.2692 21.03 51.9159 21.29C52.5625 21.55 53.0859 21.92 53.4859 22.4C53.8859 22.8733 54.1259 23.43 54.2059 24.07L52.0659 24.46C51.9925 23.94 51.7492 23.53 51.3359 23.23C50.9225 22.93 50.3859 22.7667 49.7259 22.74C49.0925 22.7133 48.5792 22.82 48.1859 23.06C47.7925 23.2933 47.5959 23.6167 47.5959 24.03C47.5959 24.27 47.6692 24.4733 47.8159 24.64C47.9692 24.8067 48.2625 24.9667 48.6959 25.12C49.1292 25.2733 49.7692 25.4567 50.6159 25.67C51.5225 25.9033 52.2425 26.1633 52.7759 26.45C53.3092 26.73 53.6892 27.0667 53.9159 27.46C54.1492 27.8467 54.2659 28.3167 54.2659 28.87C54.2659 29.9367 53.8759 30.7733 53.0959 31.38C52.3225 31.9867 51.2525 32.29 49.8859 32.29ZM60.8085 32.29C59.4952 32.29 58.4252 32 57.5985 31.42C56.7718 30.84 56.2652 30.0233 56.0785 28.97L58.2185 28.64C58.3518 29.2 58.6585 29.6433 59.1385 29.97C59.6252 30.29 60.2285 30.45 60.9485 30.45C61.6018 30.45 62.1118 30.3167 62.4785 30.05C62.8518 29.7833 63.0385 29.4167 63.0385 28.95C63.0385 28.6767 62.9718 28.4567 62.8385 28.29C62.7118 28.1167 62.4418 27.9533 62.0285 27.8C61.6152 27.6467 60.9852 27.4567 60.1385 27.23C59.2118 26.99 58.4752 26.7333 57.9285 26.46C57.3885 26.18 57.0018 25.8567 56.7685 25.49C56.5418 25.1167 56.4285 24.6667 56.4285 24.14C56.4285 23.4867 56.6018 22.9167 56.9485 22.43C57.2952 21.9433 57.7818 21.5667 58.4085 21.3C59.0418 21.0333 59.7818 20.9 60.6285 20.9C61.4552 20.9 62.1918 21.03 62.8385 21.29C63.4852 21.55 64.0085 21.92 64.4085 22.4C64.8085 22.8733 65.0485 23.43 65.1285 24.07L62.9885 24.46C62.9152 23.94 62.6718 23.53 62.2585 23.23C61.8452 22.93 61.3085 22.7667 60.6485 22.74C60.0152 22.7133 59.5018 22.82 59.1085 23.06C58.7152 23.2933 58.5185 23.6167 58.5185 24.03C58.5185 24.27 58.5918 24.4733 58.7385 24.64C58.8918 24.8067 59.1852 24.9667 59.6185 25.12C60.0518 25.2733 60.6918 25.4567 61.5385 25.67C62.4452 25.9033 63.1652 26.1633 63.6985 26.45C64.2318 26.73 64.6118 27.0667 64.8385 27.46C65.0718 27.8467 65.1885 28.3167 65.1885 28.87C65.1885 29.9367 64.7985 30.7733 64.0185 31.38C63.2452 31.9867 62.1752 32.29 60.8085 32.29ZM69.5105 32L66.2105 21.19L68.2805 21.2L70.5405 28.61L72.8205 21.2H74.6205L76.9005 28.61L79.1605 21.2H81.2205L77.9205 32H76.2405L73.7205 24.18L71.1905 32H69.5105ZM87.5107 32.3C86.4307 32.3 85.494 32.0567 84.7007 31.57C83.9074 31.0833 83.294 30.4133 82.8607 29.56C82.434 28.7 82.2207 27.71 82.2207 26.59C82.2207 25.4633 82.4407 24.4733 82.8807 23.62C83.3207 22.76 83.9374 22.0933 84.7307 21.62C85.524 21.14 86.4507 20.9 87.5107 20.9C88.5907 20.9 89.5274 21.1433 90.3207 21.63C91.114 22.1167 91.7274 22.7867 92.1607 23.64C92.594 24.4933 92.8107 25.4767 92.8107 26.59C92.8107 27.7167 92.5907 28.71 92.1507 29.57C91.7174 30.4233 91.104 31.0933 90.3107 31.58C89.5174 32.06 88.584 32.3 87.5107 32.3ZM87.5107 30.33C88.544 30.33 89.314 29.9833 89.8207 29.29C90.334 28.59 90.5907 27.69 90.5907 26.59C90.5907 25.4633 90.3307 24.5633 89.8107 23.89C89.2974 23.21 88.5307 22.87 87.5107 22.87C86.8107 22.87 86.234 23.03 85.7807 23.35C85.3274 23.6633 84.9907 24.1 84.7707 24.66C84.5507 25.2133 84.4407 25.8567 84.4407 26.59C84.4407 27.7233 84.7007 28.63 85.2207 29.31C85.7407 29.99 86.504 30.33 87.5107 30.33ZM95.2082 32V21.2H97.0682V23.82L96.8082 23.48C96.9415 23.1333 97.1149 22.8167 97.3282 22.53C97.5415 22.2367 97.7882 21.9967 98.0682 21.81C98.3415 21.61 98.6449 21.4567 98.9782 21.35C99.3182 21.2367 99.6649 21.17 100.018 21.15C100.372 21.1233 100.712 21.14 101.038 21.2V23.16C100.685 23.0667 100.292 23.04 99.8582 23.08C99.4315 23.12 99.0382 23.2567 98.6782 23.49C98.3382 23.71 98.0682 23.9767 97.8682 24.29C97.6749 24.6033 97.5349 24.9533 97.4482 25.34C97.3615 25.72 97.3182 26.1233 97.3182 26.55V32H95.2082ZM107.237 32.3C106.231 32.3 105.361 32.05 104.627 31.55C103.901 31.05 103.337 30.37 102.937 29.51C102.544 28.6433 102.347 27.67 102.347 26.59C102.347 25.5033 102.547 24.5333 102.947 23.68C103.347 22.82 103.914 22.1433 104.647 21.65C105.387 21.15 106.264 20.9 107.277 20.9C108.297 20.9 109.154 21.15 109.847 21.65C110.547 22.1433 111.074 22.82 111.427 23.68C111.787 24.54 111.967 25.51 111.967 26.59C111.967 27.67 111.787 28.64 111.427 29.5C111.067 30.36 110.537 31.0433 109.837 31.55C109.137 32.05 108.271 32.3 107.237 32.3ZM107.527 30.41C108.214 30.41 108.774 30.2467 109.207 29.92C109.641 29.5933 109.957 29.1433 110.157 28.57C110.357 27.9967 110.457 27.3367 110.457 26.59C110.457 25.8433 110.354 25.1833 110.147 24.61C109.947 24.0367 109.634 23.59 109.207 23.27C108.787 22.95 108.251 22.79 107.597 22.79C106.904 22.79 106.334 22.96 105.887 23.3C105.441 23.64 105.107 24.0967 104.887 24.67C104.674 25.2433 104.567 25.8833 104.567 26.59C104.567 27.3033 104.674 27.95 104.887 28.53C105.107 29.1033 105.434 29.56 105.867 29.9C106.307 30.24 106.861 30.41 107.527 30.41ZM110.457 32V24.23H110.217V17.6H112.317V32H110.457ZM119.445 32.29C118.132 32.29 117.062 32 116.235 31.42C115.409 30.84 114.902 30.0233 114.715 28.97L116.855 28.64C116.989 29.2 117.295 29.6433 117.775 29.97C118.262 30.29 118.865 30.45 119.585 30.45C120.239 30.45 120.749 30.3167 121.115 30.05C121.489 29.7833 121.675 29.4167 121.675 28.95C121.675 28.6767 121.609 28.4567 121.475 28.29C121.349 28.1167 121.079 27.9533 120.665 27.8C120.252 27.6467 119.622 27.4567 118.775 27.23C117.849 26.99 117.112 26.7333 116.565 26.46C116.025 26.18 115.639 25.8567 115.405 25.49C115.179 25.1167 115.065 24.6667 115.065 24.14C115.065 23.4867 115.239 22.9167 115.585 22.43C115.932 21.9433 116.419 21.5667 117.045 21.3C117.679 21.0333 118.419 20.9 119.265 20.9C120.092 20.9 120.829 21.03 121.475 21.29C122.122 21.55 122.645 21.92 123.045 22.4C123.445 22.8733 123.685 23.43 123.765 24.07L121.625 24.46C121.552 23.94 121.309 23.53 120.895 23.23C120.482 22.93 119.945 22.7667 119.285 22.74C118.652 22.7133 118.139 22.82 117.745 23.06C117.352 23.2933 117.155 23.6167 117.155 24.03C117.155 24.27 117.229 24.4733 117.375 24.64C117.529 24.8067 117.822 24.9667 118.255 25.12C118.689 25.2733 119.329 25.4567 120.175 25.67C121.082 25.9033 121.802 26.1633 122.335 26.45C122.869 26.73 123.249 27.0667 123.475 27.46C123.709 27.8467 123.825 28.3167 123.825 28.87C123.825 29.9367 123.435 30.7733 122.655 31.38C121.882 31.9867 120.812 32.29 119.445 32.29Z" fill="#232A31" fill-opacity="0.5"/>
</svg>
