<svg width="215" height="52" viewBox="0 0 215 52" fill="none" xmlns="http://www.w3.org/2000/svg">
<rect width="215" height="52" rx="26" fill="white" fill-opacity="0.5"/>
<path d="M26.861 24.3C25.8277 24.3 24.8943 24.1233 24.061 23.77C23.2343 23.41 22.551 22.9 22.011 22.24C21.4777 21.5733 21.131 20.7833 20.971 19.87L23.151 19.54C23.371 20.42 23.831 21.1067 24.531 21.6C25.231 22.0867 26.0477 22.33 26.981 22.33C27.561 22.33 28.0943 22.24 28.581 22.06C29.0677 21.8733 29.4577 21.61 29.751 21.27C30.051 20.9233 30.201 20.51 30.201 20.03C30.201 19.77 30.1543 19.54 30.061 19.34C29.9743 19.14 29.851 18.9667 29.691 18.82C29.5377 18.6667 29.3477 18.5367 29.121 18.43C28.901 18.3167 28.6577 18.22 28.391 18.14L24.701 17.05C24.341 16.9433 23.9743 16.8067 23.601 16.64C23.2277 16.4667 22.8843 16.2433 22.571 15.97C22.2643 15.69 22.0143 15.3467 21.821 14.94C21.6277 14.5267 21.531 14.0267 21.531 13.44C21.531 12.5533 21.7577 11.8033 22.211 11.19C22.671 10.57 23.291 10.1033 24.071 9.79C24.851 9.47 25.7243 9.31 26.691 9.31C27.6643 9.32333 28.5343 9.49667 29.301 9.83C30.0743 10.1633 30.7143 10.6433 31.221 11.27C31.7343 11.89 32.0877 12.6433 32.281 13.53L30.041 13.91C29.941 13.37 29.7277 12.9067 29.401 12.52C29.0743 12.1267 28.6743 11.8267 28.201 11.62C27.7277 11.4067 27.2143 11.2967 26.661 11.29C26.1277 11.2767 25.6377 11.3567 25.191 11.53C24.751 11.7033 24.3977 11.9467 24.131 12.26C23.871 12.5733 23.741 12.9333 23.741 13.34C23.741 13.74 23.8577 14.0633 24.091 14.31C24.3243 14.5567 24.611 14.7533 24.951 14.9C25.2977 15.04 25.641 15.1567 25.981 15.25L28.641 16C28.9743 16.0933 29.351 16.22 29.771 16.38C30.1977 16.5333 30.6077 16.75 31.001 17.03C31.401 17.31 31.731 17.6833 31.991 18.15C32.251 18.61 32.381 19.19 32.381 19.89C32.381 20.6167 32.2343 21.2567 31.941 21.81C31.6477 22.3567 31.2443 22.8167 30.731 23.19C30.2243 23.5567 29.6377 23.8333 28.971 24.02C28.3043 24.2067 27.601 24.3 26.861 24.3ZM39.5021 24.3C38.4288 24.3 37.4854 24.0667 36.6721 23.6C35.8654 23.1267 35.2354 22.47 34.7821 21.63C34.3354 20.7833 34.1121 19.8033 34.1121 18.69C34.1121 17.51 34.3321 16.4867 34.7721 15.62C35.2188 14.7533 35.8388 14.0833 36.6321 13.61C37.4254 13.1367 38.3488 12.9 39.4021 12.9C40.5021 12.9 41.4388 13.1567 42.2121 13.67C42.9854 14.1767 43.5621 14.9 43.9421 15.84C44.3288 16.78 44.4821 17.8967 44.4021 19.19H42.3121V18.43C42.2988 17.1767 42.0588 16.25 41.5921 15.65C41.1321 15.05 40.4288 14.75 39.4821 14.75C38.4354 14.75 37.6488 15.08 37.1221 15.74C36.5954 16.4 36.3321 17.3533 36.3321 18.6C36.3321 19.7867 36.5954 20.7067 37.1221 21.36C37.6488 22.0067 38.4088 22.33 39.4021 22.33C40.0554 22.33 40.6188 22.1833 41.0921 21.89C41.5721 21.59 41.9454 21.1633 42.2121 20.61L44.2621 21.26C43.8421 22.2267 43.2054 22.9767 42.3521 23.51C41.4988 24.0367 40.5488 24.3 39.5021 24.3ZM35.6521 19.19V17.56L43.3621 17.56V19.19L35.6521 19.19ZM46.8457 24V13.2H48.7057V15.82L48.4457 15.48C48.579 15.1333 48.7524 14.8167 48.9657 14.53C49.179 14.2367 49.4257 13.9967 49.7057 13.81C49.979 13.61 50.2824 13.4567 50.6157 13.35C50.9557 13.2367 51.3024 13.17 51.6557 13.15C52.009 13.1233 52.349 13.14 52.6757 13.2V15.16C52.3224 15.0667 51.929 15.04 51.4957 15.08C51.069 15.12 50.6757 15.2567 50.3157 15.49C49.9757 15.71 49.7057 15.9767 49.5057 16.29C49.3124 16.6033 49.1724 16.9533 49.0857 17.34C48.999 17.72 48.9557 18.1233 48.9557 18.55V24H46.8457ZM57.7001 24L53.7801 13.2H55.8901L58.7601 21.38L61.6301 13.2H63.7401L59.8201 24H57.7001ZM65.9418 11.43V9.4H68.0318V11.43L65.9418 11.43ZM65.9418 24V13.2L68.0318 13.2V24H65.9418ZM75.8548 24.3C74.7481 24.3 73.8081 24.0533 73.0348 23.56C72.2614 23.0667 71.6681 22.39 71.2548 21.53C70.8481 20.67 70.6414 19.6933 70.6348 18.6C70.6414 17.4867 70.8548 16.5033 71.2748 15.65C71.6948 14.79 72.2948 14.1167 73.0748 13.63C73.8548 13.1433 74.7914 12.9 75.8848 12.9C77.0648 12.9 78.0714 13.1933 78.9048 13.78C79.7448 14.3667 80.2981 15.17 80.5648 16.19L78.4848 16.79C78.2781 16.1833 77.9381 15.7133 77.4648 15.38C76.9981 15.04 76.4614 14.87 75.8548 14.87C75.1681 14.87 74.6048 15.0333 74.1648 15.36C73.7248 15.68 73.3981 16.12 73.1848 16.68C72.9714 17.24 72.8614 17.88 72.8548 18.6C72.8614 19.7133 73.1148 20.6133 73.6148 21.3C74.1214 21.9867 74.8681 22.33 75.8548 22.33C76.5281 22.33 77.0714 22.1767 77.4848 21.87C77.9048 21.5567 78.2248 21.11 78.4448 20.53L80.5648 21.03C80.2114 22.0833 79.6281 22.8933 78.8148 23.46C78.0014 24.02 77.0148 24.3 75.8548 24.3ZM87.299 24.3C86.2256 24.3 85.2823 24.0667 84.469 23.6C83.6623 23.1267 83.0323 22.47 82.579 21.63C82.1323 20.7833 81.909 19.8033 81.909 18.69C81.909 17.51 82.129 16.4867 82.569 15.62C83.0156 14.7533 83.6356 14.0833 84.429 13.61C85.2223 13.1367 86.1456 12.9 87.199 12.9C88.299 12.9 89.2356 13.1567 90.009 13.67C90.7823 14.1767 91.359 14.9 91.739 15.84C92.1256 16.78 92.279 17.8967 92.199 19.19H90.109V18.43C90.0956 17.1767 89.8556 16.25 89.389 15.65C88.929 15.05 88.2256 14.75 87.279 14.75C86.2323 14.75 85.4456 15.08 84.919 15.74C84.3923 16.4 84.129 17.3533 84.129 18.6C84.129 19.7867 84.3923 20.7067 84.919 21.36C85.4456 22.0067 86.2056 22.33 87.199 22.33C87.8523 22.33 88.4156 22.1833 88.889 21.89C89.369 21.59 89.7423 21.1633 90.009 20.61L92.059 21.26C91.639 22.2267 91.0023 22.9767 90.149 23.51C89.2956 24.0367 88.3456 24.3 87.299 24.3ZM83.449 19.19V17.56H91.159V19.19H83.449ZM98.8465 24V9.6H104.666C104.806 9.6 104.98 9.60667 105.186 9.62C105.393 9.62667 105.59 9.64667 105.776 9.68C106.576 9.80667 107.243 10.08 107.776 10.5C108.316 10.92 108.72 11.45 108.986 12.09C109.253 12.73 109.386 13.4367 109.386 14.21C109.386 14.99 109.253 15.7 108.986 16.34C108.72 16.98 108.316 17.51 107.776 17.93C107.243 18.35 106.576 18.6233 105.776 18.75C105.59 18.7767 105.39 18.7967 105.176 18.81C104.97 18.8233 104.8 18.83 104.666 18.83H100.936V24H98.8465ZM100.936 16.85H104.586C104.72 16.85 104.866 16.8433 105.026 16.83C105.193 16.8167 105.35 16.7933 105.496 16.76C105.923 16.66 106.266 16.4767 106.526 16.21C106.786 15.9367 106.973 15.6233 107.086 15.27C107.2 14.9167 107.256 14.5633 107.256 14.21C107.256 13.8567 107.2 13.5067 107.086 13.16C106.973 12.8067 106.786 12.4967 106.526 12.23C106.266 11.9567 105.923 11.77 105.496 11.67C105.35 11.63 105.193 11.6033 105.026 11.59C104.866 11.5767 104.72 11.57 104.586 11.57H100.936V16.85ZM111.586 24V13.2H113.446V15.82L113.186 15.48C113.319 15.1333 113.492 14.8167 113.706 14.53C113.919 14.2367 114.166 13.9967 114.446 13.81C114.719 13.61 115.022 13.4567 115.356 13.35C115.696 13.2367 116.042 13.17 116.396 13.15C116.749 13.1233 117.089 13.14 117.416 13.2V15.16C117.062 15.0667 116.669 15.04 116.236 15.08C115.809 15.12 115.416 15.2567 115.056 15.49C114.716 15.71 114.446 15.9767 114.246 16.29C114.052 16.6033 113.912 16.9533 113.826 17.34C113.739 17.72 113.696 18.1233 113.696 18.55V24H111.586ZM119.72 11.43V9.4H121.81V11.43H119.72ZM119.72 24V13.2H121.81V24L119.72 24ZM132.593 24V18.69C132.593 18.27 132.556 17.84 132.483 17.4C132.416 16.9533 132.283 16.54 132.083 16.16C131.89 15.78 131.613 15.4733 131.253 15.24C130.9 15.0067 130.436 14.89 129.863 14.89C129.49 14.89 129.136 14.9533 128.803 15.08C128.47 15.2 128.176 15.3967 127.923 15.67C127.676 15.9433 127.48 16.3033 127.333 16.75C127.193 17.1967 127.123 17.74 127.123 18.38L125.823 17.89C125.823 16.91 126.006 16.0467 126.373 15.3C126.74 14.5467 127.266 13.96 127.953 13.54C128.64 13.12 129.47 12.91 130.443 12.91C131.19 12.91 131.816 13.03 132.323 13.27C132.83 13.51 133.24 13.8267 133.553 14.22C133.873 14.6067 134.116 15.03 134.283 15.49C134.45 15.95 134.563 16.4 134.623 16.84C134.683 17.28 134.713 17.6667 134.713 18V24H132.593ZM125.003 24V13.2L126.873 13.2V16.32H127.123V24H125.003ZM142.001 24.3C140.894 24.3 139.954 24.0533 139.181 23.56C138.408 23.0667 137.814 22.39 137.401 21.53C136.994 20.67 136.788 19.6933 136.781 18.6C136.788 17.4867 137.001 16.5033 137.421 15.65C137.841 14.79 138.441 14.1167 139.221 13.63C140.001 13.1433 140.938 12.9 142.031 12.9C143.211 12.9 144.218 13.1933 145.051 13.78C145.891 14.3667 146.444 15.17 146.711 16.19L144.631 16.79C144.424 16.1833 144.084 15.7133 143.611 15.38C143.144 15.04 142.608 14.87 142.001 14.87C141.314 14.87 140.751 15.0333 140.311 15.36C139.871 15.68 139.544 16.12 139.331 16.68C139.118 17.24 139.008 17.88 139.001 18.6C139.008 19.7133 139.261 20.6133 139.761 21.3C140.268 21.9867 141.014 22.33 142.001 22.33C142.674 22.33 143.218 22.1767 143.631 21.87C144.051 21.5567 144.371 21.11 144.591 20.53L146.711 21.03C146.358 22.0833 145.774 22.8933 144.961 23.46C144.148 24.02 143.161 24.3 142.001 24.3ZM148.855 11.43V9.4H150.945V11.43H148.855ZM148.855 24V13.2H150.945V24L148.855 24ZM159.218 24.3C158.185 24.3 157.318 24.05 156.618 23.55C155.918 23.0433 155.388 22.36 155.028 21.5C154.668 20.64 154.488 19.67 154.488 18.59C154.488 17.51 154.665 16.54 155.018 15.68C155.378 14.82 155.905 14.1433 156.598 13.65C157.298 13.15 158.158 12.9 159.178 12.9C160.191 12.9 161.065 13.15 161.798 13.65C162.538 14.1433 163.108 14.82 163.508 15.68C163.908 16.5333 164.108 17.5033 164.108 18.59C164.108 19.67 163.908 20.6433 163.508 21.51C163.115 22.37 162.551 23.05 161.818 23.55C161.091 24.05 160.225 24.3 159.218 24.3ZM154.138 28.8V13.2L155.998 13.2V20.97H156.238V28.8H154.138ZM158.928 22.41C159.595 22.41 160.145 22.24 160.578 21.9C161.018 21.56 161.345 21.1033 161.558 20.53C161.778 19.95 161.888 19.3033 161.888 18.59C161.888 17.8833 161.778 17.2433 161.558 16.67C161.345 16.0967 161.015 15.64 160.568 15.3C160.121 14.96 159.551 14.79 158.858 14.79C158.205 14.79 157.665 14.95 157.238 15.27C156.818 15.59 156.505 16.0367 156.298 16.61C156.098 17.1833 155.998 17.8433 155.998 18.59C155.998 19.3367 156.098 19.9967 156.298 20.57C156.498 21.1433 156.815 21.5933 157.248 21.92C157.681 22.2467 158.241 22.41 158.928 22.41ZM169.566 24.3C168.766 24.3 168.096 24.1533 167.556 23.86C167.016 23.56 166.606 23.1667 166.326 22.68C166.053 22.1867 165.916 21.6467 165.916 21.06C165.916 20.5133 166.013 20.0333 166.206 19.62C166.399 19.2067 166.686 18.8567 167.066 18.57C167.446 18.2767 167.913 18.04 168.466 17.86C168.946 17.72 169.489 17.5967 170.096 17.49C170.703 17.3833 171.339 17.2833 172.006 17.19C172.679 17.0967 173.346 17.0033 174.006 16.91L173.246 17.33C173.259 16.4833 173.079 15.8567 172.706 15.45C172.339 15.0367 171.706 14.83 170.806 14.83C170.239 14.83 169.719 14.9633 169.246 15.23C168.773 15.49 168.443 15.9233 168.256 16.53L166.306 15.93C166.573 15.0033 167.079 14.2667 167.826 13.72C168.579 13.1733 169.579 12.9 170.826 12.9C171.793 12.9 172.633 13.0667 173.346 13.4C174.066 13.7267 174.593 14.2467 174.926 14.96C175.099 15.3133 175.206 15.6867 175.246 16.08C175.286 16.4733 175.306 16.8967 175.306 17.35V24H173.456V21.53L173.816 21.85C173.369 22.6767 172.799 23.2933 172.106 23.7C171.419 24.1 170.573 24.3 169.566 24.3ZM169.936 22.59C170.529 22.59 171.039 22.4867 171.466 22.28C171.893 22.0667 172.236 21.7967 172.496 21.47C172.756 21.1433 172.926 20.8033 173.006 20.45C173.119 20.13 173.183 19.77 173.196 19.37C173.216 18.97 173.226 18.65 173.226 18.41L173.906 18.66C173.246 18.76 172.646 18.85 172.106 18.93C171.566 19.01 171.076 19.09 170.636 19.17C170.203 19.2433 169.816 19.3333 169.476 19.44C169.189 19.54 168.933 19.66 168.706 19.8C168.486 19.94 168.309 20.11 168.176 20.31C168.049 20.51 167.986 20.7533 167.986 21.04C167.986 21.32 168.056 21.58 168.196 21.82C168.336 22.0533 168.549 22.24 168.836 22.38C169.123 22.52 169.489 22.59 169.936 22.59ZM178.303 24V9.3H180.393V24L178.303 24ZM191.44 9.6H193.55L189.71 24H187.6L191.44 9.6ZM26.1719 44V29.6H28.0619L33.2819 40.43L38.4719 29.6H40.3819V43.99H38.4019V34.14L33.7519 44H32.8019L28.1419 34.14L28.1419 44H26.1719ZM46.4336 44.3C45.6336 44.3 44.9636 44.1533 44.4236 43.86C43.8836 43.56 43.4736 43.1667 43.1936 42.68C42.9203 42.1867 42.7836 41.6467 42.7836 41.06C42.7836 40.5133 42.8803 40.0333 43.0736 39.62C43.2669 39.2067 43.5536 38.8567 43.9336 38.57C44.3136 38.2767 44.7803 38.04 45.3336 37.86C45.8136 37.72 46.3569 37.5967 46.9636 37.49C47.5703 37.3833 48.2069 37.2833 48.8736 37.19C49.5469 37.0967 50.2136 37.0033 50.8736 36.91L50.1136 37.33C50.1269 36.4833 49.9469 35.8567 49.5736 35.45C49.2069 35.0367 48.5736 34.83 47.6736 34.83C47.1069 34.83 46.5869 34.9633 46.1136 35.23C45.6403 35.49 45.3103 35.9233 45.1236 36.53L43.1736 35.93C43.4403 35.0033 43.9469 34.2667 44.6936 33.72C45.4469 33.1733 46.4469 32.9 47.6936 32.9C48.6603 32.9 49.5003 33.0667 50.2136 33.4C50.9336 33.7267 51.4603 34.2467 51.7936 34.96C51.9669 35.3133 52.0736 35.6867 52.1136 36.08C52.1536 36.4733 52.1736 36.8967 52.1736 37.35V44H50.3236V41.53L50.6836 41.85C50.2369 42.6767 49.6669 43.2933 48.9736 43.7C48.2869 44.1 47.4403 44.3 46.4336 44.3ZM46.8036 42.59C47.3969 42.59 47.9069 42.4867 48.3336 42.28C48.7603 42.0667 49.1036 41.7967 49.3636 41.47C49.6236 41.1433 49.7936 40.8033 49.8736 40.45C49.9869 40.13 50.0503 39.77 50.0636 39.37C50.0836 38.97 50.0936 38.65 50.0936 38.41L50.7736 38.66C50.1136 38.76 49.5136 38.85 48.9736 38.93C48.4336 39.01 47.9436 39.09 47.5036 39.17C47.0703 39.2433 46.6836 39.3333 46.3436 39.44C46.0569 39.54 45.8003 39.66 45.5736 39.8C45.3536 39.94 45.1769 40.11 45.0436 40.31C44.9169 40.51 44.8536 40.7533 44.8536 41.04C44.8536 41.32 44.9236 41.58 45.0636 41.82C45.2036 42.0533 45.4169 42.24 45.7036 42.38C45.9903 42.52 46.3569 42.59 46.8036 42.59ZM62.5503 44V38.69C62.5503 38.27 62.5136 37.84 62.4403 37.4C62.3736 36.9533 62.2403 36.54 62.0403 36.16C61.847 35.78 61.5703 35.4733 61.2103 35.24C60.857 35.0067 60.3936 34.89 59.8203 34.89C59.447 34.89 59.0936 34.9533 58.7603 35.08C58.427 35.2 58.1336 35.3967 57.8803 35.67C57.6336 35.9433 57.437 36.3033 57.2903 36.75C57.1503 37.1967 57.0803 37.74 57.0803 38.38L55.7803 37.89C55.7803 36.91 55.9636 36.0467 56.3303 35.3C56.697 34.5467 57.2236 33.96 57.9103 33.54C58.597 33.12 59.427 32.91 60.4003 32.91C61.147 32.91 61.7736 33.03 62.2803 33.27C62.787 33.51 63.197 33.8267 63.5103 34.22C63.8303 34.6067 64.0736 35.03 64.2403 35.49C64.407 35.95 64.5203 36.4 64.5803 36.84C64.6403 37.28 64.6703 37.6667 64.6703 38V44H62.5503ZM54.9603 44L54.9603 33.2H56.8303L56.8303 36.32H57.0803V44H54.9603ZM70.525 44.3C69.725 44.3 69.055 44.1533 68.515 43.86C67.975 43.56 67.565 43.1667 67.285 42.68C67.0117 42.1867 66.875 41.6467 66.875 41.06C66.875 40.5133 66.9717 40.0333 67.165 39.62C67.3583 39.2067 67.645 38.8567 68.025 38.57C68.405 38.2767 68.8717 38.04 69.425 37.86C69.905 37.72 70.4483 37.5967 71.055 37.49C71.6617 37.3833 72.2983 37.2833 72.965 37.19C73.6383 37.0967 74.305 37.0033 74.965 36.91L74.205 37.33C74.2183 36.4833 74.0383 35.8567 73.665 35.45C73.2983 35.0367 72.665 34.83 71.765 34.83C71.1983 34.83 70.6783 34.9633 70.205 35.23C69.7317 35.49 69.4017 35.9233 69.215 36.53L67.265 35.93C67.5317 35.0033 68.0383 34.2667 68.785 33.72C69.5383 33.1733 70.5383 32.9 71.785 32.9C72.7517 32.9 73.5917 33.0667 74.305 33.4C75.025 33.7267 75.5517 34.2467 75.885 34.96C76.0583 35.3133 76.165 35.6867 76.205 36.08C76.245 36.4733 76.265 36.8967 76.265 37.35V44H74.415V41.53L74.775 41.85C74.3283 42.6767 73.7583 43.2933 73.065 43.7C72.3783 44.1 71.5317 44.3 70.525 44.3ZM70.895 42.59C71.4883 42.59 71.9983 42.4867 72.425 42.28C72.8517 42.0667 73.195 41.7967 73.455 41.47C73.715 41.1433 73.885 40.8033 73.965 40.45C74.0783 40.13 74.1417 39.77 74.155 39.37C74.175 38.97 74.185 38.65 74.185 38.41L74.865 38.66C74.205 38.76 73.605 38.85 73.065 38.93C72.525 39.01 72.035 39.09 71.595 39.17C71.1617 39.2433 70.775 39.3333 70.435 39.44C70.1483 39.54 69.8917 39.66 69.665 39.8C69.445 39.94 69.2683 40.11 69.135 40.31C69.0083 40.51 68.945 40.7533 68.945 41.04C68.945 41.32 69.015 41.58 69.155 41.82C69.295 42.0533 69.5083 42.24 69.795 42.38C70.0817 42.52 70.4483 42.59 70.895 42.59ZM83.5117 49.1C82.9317 49.1 82.3684 49.01 81.8217 48.83C81.2817 48.65 80.7884 48.3833 80.3417 48.03C79.8951 47.6833 79.5251 47.2533 79.2317 46.74L81.1617 45.76C81.3951 46.22 81.7284 46.5567 82.1617 46.77C82.5951 46.9833 83.0517 47.09 83.5317 47.09C84.1251 47.09 84.6317 46.9833 85.0517 46.77C85.4717 46.5633 85.7884 46.25 86.0017 45.83C86.2217 45.41 86.3284 44.89 86.3217 44.27V41.25H86.5717V33.2H88.4217V44.29C88.4217 44.5767 88.4117 44.85 88.3917 45.11C88.3717 45.37 88.3351 45.63 88.2817 45.89C88.1284 46.6167 87.8351 47.2167 87.4017 47.69C86.9751 48.1633 86.4284 48.5167 85.7617 48.75C85.1017 48.9833 84.3517 49.1 83.5117 49.1ZM83.3517 44.3C82.3451 44.3 81.4751 44.05 80.7417 43.55C80.0151 43.05 79.4517 42.37 79.0517 41.51C78.6584 40.6433 78.4617 39.67 78.4617 38.59C78.4617 37.5033 78.6617 36.5333 79.0617 35.68C79.4617 34.82 80.0284 34.1433 80.7617 33.65C81.5017 33.15 82.3784 32.9 83.3917 32.9C84.4117 32.9 85.2684 33.15 85.9617 33.65C86.6617 34.1433 87.1884 34.82 87.5417 35.68C87.9017 36.54 88.0817 37.51 88.0817 38.59C88.0817 39.67 87.9017 40.64 87.5417 41.5C87.1817 42.36 86.6517 43.0433 85.9517 43.55C85.2517 44.05 84.3851 44.3 83.3517 44.3ZM83.6417 42.41C84.3284 42.41 84.8884 42.2467 85.3217 41.92C85.7551 41.5933 86.0717 41.1433 86.2717 40.57C86.4717 39.9967 86.5717 39.3367 86.5717 38.59C86.5717 37.8433 86.4684 37.1833 86.2617 36.61C86.0617 36.0367 85.7484 35.59 85.3217 35.27C84.9017 34.95 84.3651 34.79 83.7117 34.79C83.0184 34.79 82.4484 34.96 82.0017 35.3C81.5551 35.64 81.2217 36.0967 81.0017 36.67C80.7884 37.2433 80.6817 37.8833 80.6817 38.59C80.6817 39.3033 80.7884 39.95 81.0017 40.53C81.2217 41.1033 81.5484 41.56 81.9817 41.9C82.4217 42.24 82.9751 42.41 83.6417 42.41ZM96.2197 44.3C95.1464 44.3 94.203 44.0667 93.3897 43.6C92.583 43.1267 91.953 42.47 91.4997 41.63C91.053 40.7833 90.8297 39.8033 90.8297 38.69C90.8297 37.51 91.0497 36.4867 91.4897 35.62C91.9364 34.7533 92.5564 34.0833 93.3497 33.61C94.143 33.1367 95.0664 32.9 96.1197 32.9C97.2197 32.9 98.1564 33.1567 98.9297 33.67C99.703 34.1767 100.28 34.9 100.66 35.84C101.046 36.78 101.2 37.8967 101.12 39.19H99.0297V38.43C99.0164 37.1767 98.7764 36.25 98.3097 35.65C97.8497 35.05 97.1464 34.75 96.1997 34.75C95.153 34.75 94.3664 35.08 93.8397 35.74C93.313 36.4 93.0497 37.3533 93.0497 38.6C93.0497 39.7867 93.313 40.7067 93.8397 41.36C94.3664 42.0067 95.1264 42.33 96.1197 42.33C96.773 42.33 97.3364 42.1833 97.8097 41.89C98.2897 41.59 98.663 41.1633 98.9297 40.61L100.98 41.26C100.56 42.2267 99.923 42.9767 99.0697 43.51C98.2164 44.0367 97.2664 44.3 96.2197 44.3ZM92.3697 39.19V37.56L100.08 37.56V39.19H92.3697ZM107.853 44.3C106.847 44.3 105.977 44.05 105.243 43.55C104.517 43.05 103.953 42.37 103.553 41.51C103.16 40.6433 102.963 39.67 102.963 38.59C102.963 37.5033 103.163 36.5333 103.563 35.68C103.963 34.82 104.53 34.1433 105.263 33.65C106.003 33.15 106.88 32.9 107.893 32.9C108.913 32.9 109.77 33.15 110.463 33.65C111.163 34.1433 111.69 34.82 112.043 35.68C112.403 36.54 112.583 37.51 112.583 38.59C112.583 39.67 112.403 40.64 112.043 41.5C111.683 42.36 111.153 43.0433 110.453 43.55C109.753 44.05 108.887 44.3 107.853 44.3ZM108.143 42.41C108.83 42.41 109.39 42.2467 109.823 41.92C110.257 41.5933 110.573 41.1433 110.773 40.57C110.973 39.9967 111.073 39.3367 111.073 38.59C111.073 37.8433 110.97 37.1833 110.763 36.61C110.563 36.0367 110.25 35.59 109.823 35.27C109.403 34.95 108.867 34.79 108.213 34.79C107.52 34.79 106.95 34.96 106.503 35.3C106.057 35.64 105.723 36.0967 105.503 36.67C105.29 37.2433 105.183 37.8833 105.183 38.59C105.183 39.3033 105.29 39.95 105.503 40.53C105.723 41.1033 106.05 41.56 106.483 41.9C106.923 42.24 107.477 42.41 108.143 42.41ZM111.073 44V36.23H110.833V29.6H112.933V44H111.073ZM120.335 44V29.6L122.425 29.6V44H120.335ZM129.918 44.3C128.911 44.3 128.041 44.05 127.308 43.55C126.581 43.05 126.018 42.37 125.618 41.51C125.225 40.6433 125.028 39.67 125.028 38.59C125.028 37.5033 125.228 36.5333 125.628 35.68C126.028 34.82 126.595 34.1433 127.328 33.65C128.068 33.15 128.945 32.9 129.958 32.9C130.978 32.9 131.835 33.15 132.528 33.65C133.228 34.1433 133.755 34.82 134.108 35.68C134.468 36.54 134.648 37.51 134.648 38.59C134.648 39.67 134.468 40.64 134.108 41.5C133.748 42.36 133.218 43.0433 132.518 43.55C131.818 44.05 130.951 44.3 129.918 44.3ZM130.208 42.41C130.895 42.41 131.455 42.2467 131.888 41.92C132.321 41.5933 132.638 41.1433 132.838 40.57C133.038 39.9967 133.138 39.3367 133.138 38.59C133.138 37.8433 133.035 37.1833 132.828 36.61C132.628 36.0367 132.315 35.59 131.888 35.27C131.468 34.95 130.931 34.79 130.278 34.79C129.585 34.79 129.015 34.96 128.568 35.3C128.121 35.64 127.788 36.0967 127.568 36.67C127.355 37.2433 127.248 37.8833 127.248 38.59C127.248 39.3033 127.355 39.95 127.568 40.53C127.788 41.1033 128.115 41.56 128.548 41.9C128.988 42.24 129.541 42.41 130.208 42.41ZM133.138 44V36.23H132.898V29.6H134.998V44H133.138ZM142.786 44.3C141.713 44.3 140.769 44.0667 139.956 43.6C139.149 43.1267 138.519 42.47 138.066 41.63C137.619 40.7833 137.396 39.8033 137.396 38.69C137.396 37.51 137.616 36.4867 138.056 35.62C138.503 34.7533 139.123 34.0833 139.916 33.61C140.709 33.1367 141.633 32.9 142.686 32.9C143.786 32.9 144.723 33.1567 145.496 33.67C146.269 34.1767 146.846 34.9 147.226 35.84C147.613 36.78 147.766 37.8967 147.686 39.19H145.596V38.43C145.583 37.1767 145.343 36.25 144.876 35.65C144.416 35.05 143.713 34.75 142.766 34.75C141.719 34.75 140.933 35.08 140.406 35.74C139.879 36.4 139.616 37.3533 139.616 38.6C139.616 39.7867 139.879 40.7067 140.406 41.36C140.933 42.0067 141.693 42.33 142.686 42.33C143.339 42.33 143.903 42.1833 144.376 41.89C144.856 41.59 145.229 41.1633 145.496 40.61L147.546 41.26C147.126 42.2267 146.489 42.9767 145.636 43.51C144.783 44.0367 143.833 44.3 142.786 44.3ZM138.936 39.19V37.56H146.646V39.19H138.936ZM157.417 44V38.69C157.417 38.27 157.38 37.84 157.307 37.4C157.24 36.9533 157.107 36.54 156.907 36.16C156.713 35.78 156.437 35.4733 156.077 35.24C155.723 35.0067 155.26 34.89 154.687 34.89C154.313 34.89 153.96 34.9533 153.627 35.08C153.293 35.2 153 35.3967 152.747 35.67C152.5 35.9433 152.303 36.3033 152.157 36.75C152.017 37.1967 151.947 37.74 151.947 38.38L150.647 37.89C150.647 36.91 150.83 36.0467 151.197 35.3C151.563 34.5467 152.09 33.96 152.777 33.54C153.463 33.12 154.293 32.91 155.267 32.91C156.013 32.91 156.64 33.03 157.147 33.27C157.653 33.51 158.063 33.8267 158.377 34.22C158.697 34.6067 158.94 35.03 159.107 35.49C159.273 35.95 159.387 36.4 159.447 36.84C159.507 37.28 159.537 37.6667 159.537 38V44H157.417ZM149.827 44V33.2H151.697V36.32H151.947V44H149.827ZM168.521 44C167.841 44.1333 167.175 44.19 166.521 44.17C165.868 44.15 165.285 44.0233 164.771 43.79C164.258 43.5567 163.871 43.19 163.611 42.69C163.378 42.2433 163.251 41.79 163.231 41.33C163.218 40.8633 163.211 40.3367 163.211 39.75V30.2H165.311V39.65C165.311 40.0833 165.315 40.46 165.321 40.78C165.335 41.1 165.405 41.37 165.531 41.59C165.771 42.0033 166.151 42.24 166.671 42.3C167.198 42.3533 167.815 42.33 168.521 42.23V44ZM161.141 34.88V33.2H168.521V34.88H161.141ZM171.198 31.43V29.4H173.288V31.43H171.198ZM171.198 44V33.2H173.288V44H171.198ZM182.671 44C181.991 44.1333 181.325 44.19 180.671 44.17C180.018 44.15 179.435 44.0233 178.921 43.79C178.408 43.5567 178.021 43.19 177.761 42.69C177.528 42.2433 177.401 41.79 177.381 41.33C177.368 40.8633 177.361 40.3367 177.361 39.75V30.2H179.461V39.65C179.461 40.0833 179.465 40.46 179.471 40.78C179.485 41.1 179.555 41.37 179.681 41.59C179.921 42.0033 180.301 42.24 180.821 42.3C181.348 42.3533 181.965 42.33 182.671 42.23V44ZM175.291 34.88V33.2L182.671 33.2V34.88L175.291 34.88ZM186.315 48.8L188.405 43.11L188.435 44.79L183.725 33.2H185.905L189.425 42.15H188.785L192.145 33.2H194.265L188.305 48.8H186.315Z" fill="#232A31" fill-opacity="0.5"/>
</svg>