<?xml version="1.0" encoding="UTF-8" standalone="no"?>
<!-- Created with Inkscape (http://www.inkscape.org/) -->

<svg
   xmlns:dc="http://purl.org/dc/elements/1.1/"
   xmlns:cc="http://creativecommons.org/ns#"
   xmlns:rdf="http://www.w3.org/1999/02/22-rdf-syntax-ns#"
   xmlns:svg="http://www.w3.org/2000/svg"
   xmlns="http://www.w3.org/2000/svg"
   xmlns:sodipodi="http://sodipodi.sourceforge.net/DTD/sodipodi-0.dtd"
   xmlns:inkscape="http://www.inkscape.org/namespaces/inkscape"
   width="20"
   height="20"
   viewBox="0 0 5.2916665 5.2916668"
   version="1.1"
   id="svg8"
   sodipodi:docname="pc.svg"
   inkscape:version="0.92.5 (2060ec1f9f, 2020-04-08)">
  <defs
     id="defs2" />
  <sodipodi:namedview
     id="base"
     pagecolor="#ffffff"
     bordercolor="#666666"
     borderopacity="1.0"
     inkscape:pageopacity="0"
     inkscape:pageshadow="2"
     inkscape:zoom="22.4"
     inkscape:cx="9.8237204"
     inkscape:cy="10.967172"
     inkscape:document-units="mm"
     inkscape:current-layer="g2197"
     showgrid="false"
     units="px"
     inkscape:window-width="1908"
     inkscape:window-height="1004"
     inkscape:window-x="0"
     inkscape:window-y="27"
     inkscape:window-maximized="1"
     inkscape:pagecheckerboard="false" />
  <metadata
     id="metadata5">
    <rdf:RDF>
      <cc:Work
         rdf:about="">
        <dc:format>image/svg+xml</dc:format>
        <dc:type
           rdf:resource="http://purl.org/dc/dcmitype/StillImage" />
        <dc:title></dc:title>
      </cc:Work>
    </rdf:RDF>
  </metadata>
  <g
     inkscape:label="Calque 1"
     inkscape:groupmode="layer"
     id="layer1"
     transform="translate(0,-291.70832)">
    <g
       style="stroke:#494949;stroke-opacity:1"
       id="g6154"
       transform="matrix(0.03735995,0,0,0.03735995,-10.430149,281.27817)">
      <g
         style="fill:currentColor"
         id="g2197"
         transform="matrix(7.0820045,0,0,7.0820045,283.22681,288.28542)">
        <path
           style="fill:#494949;fill-opacity:1;stroke:none;stroke-width:0.71531802"
           inkscape:connector-curvature="0"
           id="path6413"
           d="M 9.4285713,3.707058 A 0.71531801,0.71531801 0 0 1 10.143891,2.9917397 h 4.291906 a 0.71531801,0.71531801 0 0 1 0.715318,0.7153183 v 10.014453 a 0.71531801,0.71531801 0 0 1 -0.715318,0.715318 H 10.143891 A 0.71531801,0.71531801 0 0 1 9.4285713,13.721511 Z m 0.7153197,9.656794 a 0.3576591,0.3576591 0 1 0 0.715318,0 0.3576591,0.3576591 0 0 0 -0.715318,0 z m 1.430636,0 a 0.357659,0.357659 0 1 0 0.715318,0 0.357659,0.357659 0 0 0 -0.715318,0 z M 10.50155,3.707058 a 0.357659,0.357659 0 0 0 0,0.7153179 h 3.576588 a 0.357659,0.357659 0 0 0 0,-0.7153179 z m -0.357659,1.7882951 a 0.357659,0.357659 0 0 0 0.357659,0.3576587 h 3.576588 a 0.357659,0.357659 0 0 0 0,-0.715318 H 10.50155 A 0.357659,0.357659 0 0 0 10.143891,5.4953531 Z M 4.7790049,4.4223759 a 1.072977,1.072977 0 0 0 -1.072977,1.0729772 v 5.0072259 a 1.072977,1.072977 0 0 0 1.072977,1.072977 h 3.2189309 v 1.430637 H 7.6402771 a 0.357659,0.357659 0 0 0 0,0.715318 H 8.7132539 V 10.860238 H 4.7790049 A 0.357659,0.357659 0 0 1 4.4213461,10.502579 V 5.4953531 A 0.357659,0.357659 0 0 1 4.7790049,5.1376938 h 3.934249 V 4.4223759 Z" />
        <ellipse
           id="path3890"
           cx="9.4285717"
           cy="8.7142849"
           rx="9.1840448"
           ry="9.3383989"
           style="fill:#000000;fill-opacity:0;stroke:#494949;stroke-width:0.60712457;stroke-miterlimit:4;stroke-dasharray:none;stroke-opacity:1" />
      </g>
    </g>
  </g>
</svg>
