<svg width="130" height="48" viewBox="0 0 130 48" fill="none" xmlns="http://www.w3.org/2000/svg">
<rect width="128" height="48" rx="24" fill="white" fill-opacity="0.5"/>
<path d="M21.7898 32L21.7898 17.6H23.8798L23.8798 24.32L29.9098 17.6H32.5098L26.1398 24.63L32.9798 32H30.2998L23.8798 25.12V32H21.7898ZM38.5767 32.3C37.5034 32.3 36.5601 32.0667 35.7467 31.6C34.9401 31.1267 34.3101 30.47 33.8567 29.63C33.4101 28.7833 33.1867 27.8033 33.1867 26.69C33.1867 25.51 33.4067 24.4867 33.8467 23.62C34.2934 22.7533 34.9134 22.0833 35.7067 21.61C36.5001 21.1367 37.4234 20.9 38.4767 20.9C39.5767 20.9 40.5134 21.1567 41.2867 21.67C42.0601 22.1767 42.6367 22.9 43.0167 23.84C43.4034 24.78 43.5567 25.8967 43.4767 27.19H41.3867V26.43C41.3734 25.1767 41.1334 24.25 40.6667 23.65C40.2067 23.05 39.5034 22.75 38.5567 22.75C37.5101 22.75 36.7234 23.08 36.1967 23.74C35.6701 24.4 35.4067 25.3533 35.4067 26.6C35.4067 27.7867 35.6701 28.7067 36.1967 29.36C36.7234 30.0067 37.4834 30.33 38.4767 30.33C39.1301 30.33 39.6934 30.1833 40.1667 29.89C40.6467 29.59 41.0201 29.1633 41.2867 28.61L43.3367 29.26C42.9167 30.2267 42.2801 30.9767 41.4267 31.51C40.5734 32.0367 39.6234 32.3 38.5767 32.3ZM34.7267 27.19V25.56H42.4367V27.19H34.7267ZM45.9203 32V21.2H47.7803V23.82L47.5203 23.48C47.6536 23.1333 47.827 22.8167 48.0403 22.53C48.2536 22.2367 48.5003 21.9967 48.7803 21.81C49.0536 21.61 49.357 21.4567 49.6903 21.35C50.0303 21.2367 50.377 21.17 50.7303 21.15C51.0836 21.1233 51.4236 21.14 51.7503 21.2V23.16C51.397 23.0667 51.0036 23.04 50.5703 23.08C50.1436 23.12 49.7503 23.2567 49.3903 23.49C49.0503 23.71 48.7803 23.9767 48.5803 24.29C48.387 24.6033 48.247 24.9533 48.1603 25.34C48.0736 25.72 48.0303 26.1233 48.0303 26.55V32H45.9203ZM58.9247 32.3C57.8914 32.3 57.0247 32.05 56.3247 31.55C55.6247 31.0433 55.0947 30.36 54.7347 29.5C54.3747 28.64 54.1947 27.67 54.1947 26.59C54.1947 25.51 54.3714 24.54 54.7247 23.68C55.0847 22.82 55.6114 22.1433 56.3047 21.65C57.0047 21.15 57.8647 20.9 58.8847 20.9C59.898 20.9 60.7714 21.15 61.5047 21.65C62.2447 22.1433 62.8147 22.82 63.2147 23.68C63.6147 24.5333 63.8147 25.5033 63.8147 26.59C63.8147 27.67 63.6147 28.6433 63.2147 29.51C62.8214 30.37 62.258 31.05 61.5247 31.55C60.798 32.05 59.9314 32.3 58.9247 32.3ZM53.8447 32V17.6H55.9447V24.23H55.7047V32H53.8447ZM58.6347 30.41C59.3014 30.41 59.8514 30.24 60.2847 29.9C60.7247 29.56 61.0514 29.1033 61.2647 28.53C61.4847 27.95 61.5947 27.3033 61.5947 26.59C61.5947 25.8833 61.4847 25.2433 61.2647 24.67C61.0514 24.0967 60.7214 23.64 60.2747 23.3C59.828 22.96 59.258 22.79 58.5647 22.79C57.9114 22.79 57.3714 22.95 56.9447 23.27C56.5247 23.59 56.2114 24.0367 56.0047 24.61C55.8047 25.1833 55.7047 25.8433 55.7047 26.59C55.7047 27.3367 55.8047 27.9967 56.0047 28.57C56.2047 29.1433 56.5214 29.5933 56.9547 29.92C57.388 30.2467 57.948 30.41 58.6347 30.41ZM71.0127 32.3C69.9393 32.3 68.996 32.0667 68.1827 31.6C67.376 31.1267 66.746 30.47 66.2927 29.63C65.846 28.7833 65.6227 27.8033 65.6227 26.69C65.6227 25.51 65.8427 24.4867 66.2827 23.62C66.7293 22.7533 67.3493 22.0833 68.1427 21.61C68.936 21.1367 69.8593 20.9 70.9127 20.9C72.0127 20.9 72.9493 21.1567 73.7227 21.67C74.496 22.1767 75.0727 22.9 75.4527 23.84C75.8393 24.78 75.9927 25.8967 75.9127 27.19H73.8227V26.43C73.8093 25.1767 73.5693 24.25 73.1027 23.65C72.6427 23.05 71.9393 22.75 70.9927 22.75C69.946 22.75 69.1593 23.08 68.6327 23.74C68.106 24.4 67.8427 25.3533 67.8427 26.6C67.8427 27.7867 68.106 28.7067 68.6327 29.36C69.1593 30.0067 69.9193 30.33 70.9127 30.33C71.566 30.33 72.1293 30.1833 72.6027 29.89C73.0827 29.59 73.456 29.1633 73.7227 28.61L75.7727 29.26C75.3527 30.2267 74.716 30.9767 73.8627 31.51C73.0093 32.0367 72.0593 32.3 71.0127 32.3ZM67.1627 27.19V25.56H74.8727V27.19H67.1627ZM78.3562 32V21.2H80.2162V23.82L79.9562 23.48C80.0896 23.1333 80.2629 22.8167 80.4762 22.53C80.6896 22.2367 80.9362 21.9967 81.2162 21.81C81.4896 21.61 81.7929 21.4567 82.1262 21.35C82.4662 21.2367 82.8129 21.17 83.1662 21.15C83.5196 21.1233 83.8596 21.14 84.1862 21.2V23.16C83.8329 23.0667 83.4396 23.04 83.0062 23.08C82.5796 23.12 82.1862 23.2567 81.8262 23.49C81.4862 23.71 81.2162 23.9767 81.0162 24.29C80.8229 24.6033 80.6829 24.9533 80.5962 25.34C80.5096 25.72 80.4662 26.1233 80.4662 26.55V32H78.3562ZM90.7853 32.3C89.7053 32.3 88.7686 32.0567 87.9753 31.57C87.182 31.0833 86.5686 30.4133 86.1353 29.56C85.7086 28.7 85.4953 27.71 85.4953 26.59C85.4953 25.4633 85.7153 24.4733 86.1553 23.62C86.5953 22.76 87.212 22.0933 88.0053 21.62C88.7986 21.14 89.7253 20.9 90.7853 20.9C91.8653 20.9 92.802 21.1433 93.5953 21.63C94.3886 22.1167 95.002 22.7867 95.4353 23.64C95.8686 24.4933 96.0853 25.4767 96.0853 26.59C96.0853 27.7167 95.8653 28.71 95.4253 29.57C94.992 30.4233 94.3786 31.0933 93.5853 31.58C92.792 32.06 91.8586 32.3 90.7853 32.3ZM90.7853 30.33C91.8186 30.33 92.5886 29.9833 93.0953 29.29C93.6086 28.59 93.8653 27.69 93.8653 26.59C93.8653 25.4633 93.6053 24.5633 93.0853 23.89C92.572 23.21 91.8053 22.87 90.7853 22.87C90.0853 22.87 89.5086 23.03 89.0553 23.35C88.602 23.6633 88.2653 24.1 88.0453 24.66C87.8253 25.2133 87.7153 25.8567 87.7153 26.59C87.7153 27.7233 87.9753 28.63 88.4953 29.31C89.0153 29.99 89.7786 30.33 90.7853 30.33ZM102.417 32.29C101.104 32.29 100.034 32 99.2075 31.42C98.3808 30.84 97.8742 30.0233 97.6875 28.97L99.8275 28.64C99.9608 29.2 100.267 29.6433 100.747 29.97C101.234 30.29 101.837 30.45 102.557 30.45C103.211 30.45 103.721 30.3167 104.087 30.05C104.461 29.7833 104.647 29.4167 104.647 28.95C104.647 28.6767 104.581 28.4567 104.447 28.29C104.321 28.1167 104.051 27.9533 103.637 27.8C103.224 27.6467 102.594 27.4567 101.747 27.23C100.821 26.99 100.084 26.7333 99.5375 26.46C98.9975 26.18 98.6108 25.8567 98.3775 25.49C98.1508 25.1167 98.0375 24.6667 98.0375 24.14C98.0375 23.4867 98.2108 22.9167 98.5575 22.43C98.9042 21.9433 99.3908 21.5667 100.017 21.3C100.651 21.0333 101.391 20.9 102.237 20.9C103.064 20.9 103.801 21.03 104.447 21.29C105.094 21.55 105.617 21.92 106.017 22.4C106.417 22.8733 106.657 23.43 106.737 24.07L104.597 24.46C104.524 23.94 104.281 23.53 103.867 23.23C103.454 22.93 102.917 22.7667 102.257 22.74C101.624 22.7133 101.111 22.82 100.717 23.06C100.324 23.2933 100.127 23.6167 100.127 24.03C100.127 24.27 100.201 24.4733 100.347 24.64C100.501 24.8067 100.794 24.9667 101.227 25.12C101.661 25.2733 102.301 25.4567 103.147 25.67C104.054 25.9033 104.774 26.1633 105.307 26.45C105.841 26.73 106.221 27.0667 106.447 27.46C106.681 27.8467 106.797 28.3167 106.797 28.87C106.797 29.9367 106.407 30.7733 105.627 31.38C104.854 31.9867 103.784 32.29 102.417 32.29Z" fill="#232A31" fill-opacity="0.5"/>
</svg>
