<svg width="166" height="50" viewBox="0 0 166 50" fill="none" xmlns="http://www.w3.org/2000/svg">
<rect width="159" height="48" rx="24" fill="white" fill-opacity="0.5"/>
<path d="M21.4234 32L21.4234 17.6H27.2434C27.3834 17.6 27.5568 17.6067 27.7634 17.62C27.9701 17.6267 28.1668 17.6467 28.3534 17.68C29.1534 17.8067 29.8201 18.08 30.3534 18.5C30.8934 18.92 31.2968 19.45 31.5634 20.09C31.8301 20.73 31.9634 21.4367 31.9634 22.21C31.9634 22.99 31.8301 23.7 31.5634 24.34C31.2968 24.98 30.8934 25.51 30.3534 25.93C29.8201 26.35 29.1534 26.6233 28.3534 26.75C28.1668 26.7767 27.9668 26.7967 27.7534 26.81C27.5468 26.8233 27.3768 26.83 27.2434 26.83H23.5134V32H21.4234ZM23.5134 24.85H27.1634C27.2968 24.85 27.4434 24.8433 27.6034 24.83C27.7701 24.8167 27.9268 24.7933 28.0734 24.76C28.5001 24.66 28.8434 24.4767 29.1034 24.21C29.3634 23.9367 29.5501 23.6233 29.6634 23.27C29.7768 22.9167 29.8334 22.5633 29.8334 22.21C29.8334 21.8567 29.7768 21.5067 29.6634 21.16C29.5501 20.8067 29.3634 20.4967 29.1034 20.23C28.8434 19.9567 28.5001 19.77 28.0734 19.67C27.9268 19.63 27.7701 19.6033 27.6034 19.59C27.4434 19.5767 27.2968 19.57 27.1634 19.57H23.5134L23.5134 24.85ZM38.8158 32.3C37.7424 32.3 36.7991 32.0667 35.9858 31.6C35.1791 31.1267 34.5491 30.47 34.0958 29.63C33.6491 28.7833 33.4258 27.8033 33.4258 26.69C33.4258 25.51 33.6458 24.4867 34.0858 23.62C34.5324 22.7533 35.1524 22.0833 35.9458 21.61C36.7391 21.1367 37.6624 20.9 38.7158 20.9C39.8158 20.9 40.7524 21.1567 41.5258 21.67C42.2991 22.1767 42.8758 22.9 43.2558 23.84C43.6424 24.78 43.7958 25.8967 43.7158 27.19H41.6258V26.43C41.6124 25.1767 41.3724 24.25 40.9058 23.65C40.4458 23.05 39.7424 22.75 38.7958 22.75C37.7491 22.75 36.9624 23.08 36.4358 23.74C35.9091 24.4 35.6458 25.3533 35.6458 26.6C35.6458 27.7867 35.9091 28.7067 36.4358 29.36C36.9624 30.0067 37.7224 30.33 38.7158 30.33C39.3691 30.33 39.9324 30.1833 40.4058 29.89C40.8858 29.59 41.2591 29.1633 41.5258 28.61L43.5758 29.26C43.1558 30.2267 42.5191 30.9767 41.6658 31.51C40.8124 32.0367 39.8624 32.3 38.8158 32.3ZM34.9658 27.19V25.56H42.6758V27.19H34.9658ZM46.1594 32V21.2H48.0194V23.82L47.7594 23.48C47.8927 23.1333 48.066 22.8167 48.2794 22.53C48.4927 22.2367 48.7394 21.9967 49.0194 21.81C49.2927 21.61 49.596 21.4567 49.9294 21.35C50.2694 21.2367 50.616 21.17 50.9694 21.15C51.3227 21.1233 51.6627 21.14 51.9894 21.2V23.16C51.636 23.0667 51.2427 23.04 50.8094 23.08C50.3827 23.12 49.9894 23.2567 49.6294 23.49C49.2894 23.71 49.0194 23.9767 48.8194 24.29C48.626 24.6033 48.486 24.9533 48.3994 25.34C48.3127 25.72 48.2694 26.1233 48.2694 26.55V32H46.1594ZM67.0337 32L67.0437 25.27C67.0437 24.49 66.8437 23.8833 66.4437 23.45C66.0437 23.01 65.5171 22.79 64.8637 22.79C64.4637 22.79 64.0971 22.8833 63.7637 23.07C63.4371 23.25 63.1704 23.5233 62.9637 23.89C62.7637 24.25 62.6637 24.7033 62.6637 25.25L61.6537 24.74C61.6404 23.98 61.8004 23.3133 62.1337 22.74C62.4737 22.1667 62.9337 21.7233 63.5137 21.41C64.0937 21.09 64.7437 20.93 65.4637 20.93C66.6304 20.93 67.5337 21.28 68.1737 21.98C68.8137 22.68 69.1337 23.61 69.1337 24.77L69.1237 32H67.0337ZM54.0837 32V21.2H55.9437V24.32H56.1837V32H54.0837ZM60.5637 32L60.5737 25.31C60.5737 24.5233 60.3737 23.9067 59.9737 23.46C59.5804 23.0133 59.0504 22.79 58.3837 22.79C57.7237 22.79 57.1904 23.0167 56.7837 23.47C56.3837 23.9233 56.1837 24.5167 56.1837 25.25L55.1837 24.61C55.1837 23.9033 55.3537 23.2733 55.6937 22.72C56.0337 22.1667 56.4937 21.73 57.0737 21.41C57.6537 21.09 58.3104 20.93 59.0437 20.93C59.8104 20.93 60.4637 21.0933 61.0037 21.42C61.5437 21.74 61.9537 22.19 62.2337 22.77C62.5204 23.35 62.6637 24.0233 62.6637 24.79L62.6537 32H60.5637ZM72.1305 19.43V17.4H74.2205V19.43H72.1305ZM72.1305 32V21.2H74.2205V32H72.1305ZM81.5534 32.29C80.2401 32.29 79.1701 32 78.3434 31.42C77.5168 30.84 77.0101 30.0233 76.8234 28.97L78.9634 28.64C79.0968 29.2 79.4034 29.6433 79.8834 29.97C80.3701 30.29 80.9734 30.45 81.6934 30.45C82.3468 30.45 82.8568 30.3167 83.2234 30.05C83.5968 29.7833 83.7834 29.4167 83.7834 28.95C83.7834 28.6767 83.7168 28.4567 83.5834 28.29C83.4568 28.1167 83.1868 27.9533 82.7734 27.8C82.3601 27.6467 81.7301 27.4567 80.8834 27.23C79.9568 26.99 79.2201 26.7333 78.6734 26.46C78.1334 26.18 77.7468 25.8567 77.5134 25.49C77.2868 25.1167 77.1734 24.6667 77.1734 24.14C77.1734 23.4867 77.3468 22.9167 77.6934 22.43C78.0401 21.9433 78.5268 21.5667 79.1534 21.3C79.7868 21.0333 80.5268 20.9 81.3734 20.9C82.2001 20.9 82.9368 21.03 83.5834 21.29C84.2301 21.55 84.7534 21.92 85.1534 22.4C85.5534 22.8733 85.7934 23.43 85.8734 24.07L83.7334 24.46C83.6601 23.94 83.4168 23.53 83.0034 23.23C82.5901 22.93 82.0534 22.7667 81.3934 22.74C80.7601 22.7133 80.2468 22.82 79.8534 23.06C79.4601 23.2933 79.2634 23.6167 79.2634 24.03C79.2634 24.27 79.3368 24.4733 79.4834 24.64C79.6368 24.8067 79.9301 24.9667 80.3634 25.12C80.7968 25.2733 81.4368 25.4567 82.2834 25.67C83.1901 25.9033 83.9101 26.1633 84.4434 26.45C84.9768 26.73 85.3568 27.0667 85.5834 27.46C85.8168 27.8467 85.9334 28.3167 85.9334 28.87C85.9334 29.9367 85.5434 30.7733 84.7634 31.38C83.9901 31.9867 82.9201 32.29 81.5534 32.29ZM92.4761 32.29C91.1628 32.29 90.0928 32 89.2661 31.42C88.4394 30.84 87.9328 30.0233 87.7461 28.97L89.8861 28.64C90.0194 29.2 90.3261 29.6433 90.8061 29.97C91.2928 30.29 91.8961 30.45 92.6161 30.45C93.2694 30.45 93.7794 30.3167 94.1461 30.05C94.5194 29.7833 94.7061 29.4167 94.7061 28.95C94.7061 28.6767 94.6394 28.4567 94.5061 28.29C94.3794 28.1167 94.1094 27.9533 93.6961 27.8C93.2828 27.6467 92.6528 27.4567 91.8061 27.23C90.8794 26.99 90.1428 26.7333 89.5961 26.46C89.0561 26.18 88.6694 25.8567 88.4361 25.49C88.2094 25.1167 88.0961 24.6667 88.0961 24.14C88.0961 23.4867 88.2694 22.9167 88.6161 22.43C88.9628 21.9433 89.4494 21.5667 90.0761 21.3C90.7094 21.0333 91.4494 20.9 92.2961 20.9C93.1228 20.9 93.8594 21.03 94.5061 21.29C95.1528 21.55 95.6761 21.92 96.0761 22.4C96.4761 22.8733 96.7161 23.43 96.7961 24.07L94.6561 24.46C94.5828 23.94 94.3394 23.53 93.9261 23.23C93.5128 22.93 92.9761 22.7667 92.3161 22.74C91.6828 22.7133 91.1694 22.82 90.7761 23.06C90.3828 23.2933 90.1861 23.6167 90.1861 24.03C90.1861 24.27 90.2594 24.4733 90.4061 24.64C90.5594 24.8067 90.8528 24.9667 91.2861 25.12C91.7194 25.2733 92.3594 25.4567 93.2061 25.67C94.1128 25.9033 94.8328 26.1633 95.3661 26.45C95.8994 26.73 96.2794 27.0667 96.5061 27.46C96.7394 27.8467 96.8561 28.3167 96.8561 28.87C96.8561 29.9367 96.4661 30.7733 95.6861 31.38C94.9128 31.9867 93.8428 32.29 92.4761 32.29ZM99.4688 19.43V17.4L101.559 17.4V19.43L99.4688 19.43ZM99.4688 32V21.2L101.559 21.2V32H99.4688ZM109.452 32.3C108.372 32.3 107.435 32.0567 106.642 31.57C105.848 31.0833 105.235 30.4133 104.802 29.56C104.375 28.7 104.162 27.71 104.162 26.59C104.162 25.4633 104.382 24.4733 104.822 23.62C105.262 22.76 105.878 22.0933 106.672 21.62C107.465 21.14 108.392 20.9 109.452 20.9C110.532 20.9 111.468 21.1433 112.262 21.63C113.055 22.1167 113.668 22.7867 114.102 23.64C114.535 24.4933 114.752 25.4767 114.752 26.59C114.752 27.7167 114.532 28.71 114.092 29.57C113.658 30.4233 113.045 31.0933 112.252 31.58C111.458 32.06 110.525 32.3 109.452 32.3ZM109.452 30.33C110.485 30.33 111.255 29.9833 111.762 29.29C112.275 28.59 112.532 27.69 112.532 26.59C112.532 25.4633 112.272 24.5633 111.752 23.89C111.238 23.21 110.472 22.87 109.452 22.87C108.752 22.87 108.175 23.03 107.722 23.35C107.268 23.6633 106.932 24.1 106.712 24.66C106.492 25.2133 106.382 25.8567 106.382 26.59C106.382 27.7233 106.642 28.63 107.162 29.31C107.682 29.99 108.445 30.33 109.452 30.33ZM124.729 32V26.69C124.729 26.27 124.693 25.84 124.619 25.4C124.553 24.9533 124.419 24.54 124.219 24.16C124.026 23.78 123.749 23.4733 123.389 23.24C123.036 23.0067 122.573 22.89 121.999 22.89C121.626 22.89 121.273 22.9533 120.939 23.08C120.606 23.2 120.313 23.3967 120.059 23.67C119.813 23.9433 119.616 24.3033 119.469 24.75C119.329 25.1967 119.259 25.74 119.259 26.38L117.959 25.89C117.959 24.91 118.143 24.0467 118.509 23.3C118.876 22.5467 119.403 21.96 120.089 21.54C120.776 21.12 121.606 20.91 122.579 20.91C123.326 20.91 123.953 21.03 124.459 21.27C124.966 21.51 125.376 21.8267 125.689 22.22C126.009 22.6067 126.253 23.03 126.419 23.49C126.586 23.95 126.699 24.4 126.759 24.84C126.819 25.28 126.849 25.6667 126.849 26V32H124.729ZM117.139 32V21.2H119.009V24.32H119.259V32H117.139ZM133.784 32.29C132.471 32.29 131.401 32 130.574 31.42C129.747 30.84 129.241 30.0233 129.054 28.97L131.194 28.64C131.327 29.2 131.634 29.6433 132.114 29.97C132.601 30.29 133.204 30.45 133.924 30.45C134.577 30.45 135.087 30.3167 135.454 30.05C135.827 29.7833 136.014 29.4167 136.014 28.95C136.014 28.6767 135.947 28.4567 135.814 28.29C135.687 28.1167 135.417 27.9533 135.004 27.8C134.591 27.6467 133.961 27.4567 133.114 27.23C132.187 26.99 131.451 26.7333 130.904 26.46C130.364 26.18 129.977 25.8567 129.744 25.49C129.517 25.1167 129.404 24.6667 129.404 24.14C129.404 23.4867 129.577 22.9167 129.924 22.43C130.271 21.9433 130.757 21.5667 131.384 21.3C132.017 21.0333 132.757 20.9 133.604 20.9C134.431 20.9 135.167 21.03 135.814 21.29C136.461 21.55 136.984 21.92 137.384 22.4C137.784 22.8733 138.024 23.43 138.104 24.07L135.964 24.46C135.891 23.94 135.647 23.53 135.234 23.23C134.821 22.93 134.284 22.7667 133.624 22.74C132.991 22.7133 132.477 22.82 132.084 23.06C131.691 23.2933 131.494 23.6167 131.494 24.03C131.494 24.27 131.567 24.4733 131.714 24.64C131.867 24.8067 132.161 24.9667 132.594 25.12C133.027 25.2733 133.667 25.4567 134.514 25.67C135.421 25.9033 136.141 26.1633 136.674 26.45C137.207 26.73 137.587 27.0667 137.814 27.46C138.047 27.8467 138.164 28.3167 138.164 28.87C138.164 29.9367 137.774 30.7733 136.994 31.38C136.221 31.9867 135.151 32.29 133.784 32.29Z" fill="#232A31" fill-opacity="0.5"/>
</svg>
