<!-- Generated by IcoMoon.io -->
<svg version="1.1" xmlns="http://www.w3.org/2000/svg" width="1008" height="1024" viewBox="0 0 1008 1024">
<title></title>
<g id="icomoon-ignore">
</g>
<path d="M477.177 855.5c-53.61-2.647-114.503-13.494-162.25-28.904l-12.093-3.903 11.589-2.755c39.97-9.503 85.839-16.49 131.010-19.956 24.873-1.909 90.361-1.613 115.893 0.523 27.799 2.326 57.168 5.986 82.23 10.247 23.064 3.921 58.937 11.383 60.137 12.509 0.427 0.4-5.922 2.855-14.109 5.455-66.413 21.092-139.925 30.362-212.407 26.784zM269.073 779.692c0-20.764 0.152-22.771 1.764-23.266 19.345-5.942 55.283-14.613 79.414-19.16 80.071-15.088 168.65-17.737 252.896-7.563 36.86 4.451 82.447 13.218 120.176 23.111l16.376 4.294v22.537c0 13.633-0.38 22.537-0.962 22.537-0.529 0-10.166-2.284-21.415-5.076-50.372-12.5-98.281-20.276-152.974-24.828-25.99-2.163-97.243-2.464-121.436-0.513-55.427 4.47-101.73 11.938-148.142 23.893-11.64 2.998-22.183 5.745-23.431 6.105l-2.267 0.654zM269.073 698.647v-29.175l13.353-3.655c55.753-15.261 103.839-23.547 163.006-28.088 21.019-1.613 88.971-1.597 109.846 0.027 61.272 4.765 117.088 14.018 169.808 28.152l14.109 3.782 0.267 28.958c0.147 15.927 0.078 28.958-0.154 28.958s-9.596-2.294-20.808-5.097c-49.769-12.444-101.749-20.848-156.672-25.331-21.773-1.777-101.382-1.766-122.947 0.017-51.904 4.292-96.105 11.5-142.914 23.303-12.852 3.241-24.161 6.214-25.13 6.608-1.655 0.672-1.764-1.073-1.764-28.46zM733.149 638.753c-56.218-15.378-125.089-26.108-187.444-29.203-13.303-0.66-24.282-1.257-24.399-1.327-0.535-0.318 8.091-36.072 11.798-48.899 13.277-45.954 33.728-88.885 57.246-120.175 25.869-34.418 58.363-60.432 89.428-71.593 10.915-3.922 28.85-7.582 43.059-8.788 35.38-3.002 72.831 6.529 100.423 25.558 25.515 17.596 31.39 50.279 16.837 93.67-7.738 23.074-22.629 53.628-41.103 84.34-8.764 14.571-39.872 62.986-49.261 76.667l-2.476 3.608zM247.35 625.59c-27.073-36.143-46.369-66.745-60.371-95.745-13.53-28.021-20.849-50.067-25.294-76.179-2.821-16.576-3.068-26.178-0.909-35.34 6.174-26.19 35.844-49.829 70.191-55.921 13.228-2.346 37.419-3.987 47.907-3.25 34.167 2.402 67.912 16.521 98.533 41.228 11.349 9.157 29.856 28.537 39.171 41.017 29.069 38.95 55.724 101.939 69.551 164.358l0.579 2.612-20.89 0.658c-44.784 1.41-98.475 7.955-141.822 17.288-12.384 2.666-50.707 12.405-59.092 15.017l-4.672 1.455zM493.124 510.265c-19.161-38.24-30.164-71.107-38.741-115.725-7.802-40.588-2.473-75.701 14.355-94.581 8.899-9.985 21.478-14.468 37.958-13.528 6.759 0.385 9.976 1.101 13.909 3.094 13.13 6.653 23.272 23.335 26.794 44.069 1.986 11.689 1.669 54.908-0.517 70.52-3.877 27.69-10.832 54.591-20.382 78.831-5.682 14.423-19.608 43.444-22.056 45.963-1.076 1.107-3.066-2.17-11.32-18.644zM471.634 974.828c-30.312-2.251-65.173-9.427-99.29-20.438-35.041-11.31-53.622-18.505-73.361-28.406-141.682-71.069-238.184-224.342-249.578-396.403-5.867-88.606 15.612-180.612 58.7-251.437 10.422-17.13 38.329-58.173 46.597-68.528 34.91-43.724 76.788-78.503 127.253-105.681 78.12-42.072 171.469-60.997 263.751-53.47 90.355 7.37 175.104 40.137 241.864 93.513 14.51 11.601 38.686 34.958 51.18 49.448 11.63 13.486 34.003 43.345 44.601 59.524 39.171 59.798 65.304 131.971 73.527 203.065 3.887 33.607 4.369 85.162 1.064 113.877-13.304 115.605-74.695 222.976-172.388 301.5-72.61 58.362-159.043 94.146-247.82 102.599-14.38 1.369-52.445 1.852-66.099 0.838zM557.294 883.776c67.122-5.18 131.259-20.249 190.368-44.725 7.428-3.076 14.406-6.394 15.508-7.374 4.804-4.275 4.747-3.228 4.747-88.344v-80.077l18.999-29.046c41.342-63.205 59.138-94.391 72.73-127.456 11.023-26.817 15.059-43.376 15.807-64.853 0.612-17.566-0.444-26.018-4.944-39.589-6.056-18.263-16.853-32.204-33.585-43.364-58.996-39.35-144.595-39.047-204.085 0.722-19.28 12.889-38.028 29.508-52.345 46.401l-6.355 7.499 0.646-4.475c2.731-18.93 3.384-47.839 1.562-69.159-2.452-28.688-11.216-49.319-27.37-64.431-7.583-7.093-13.599-10.692-23.428-14.014l-7.054-2.384-0.54-47.476h61.51v-28.217h-61.474v-49.38h-28.217v49.38h-60.466v28.217h60.466v47.896l-8.975 2.144c-17.712 4.231-29.651 12.594-39.794 27.877-18.155 27.353-23.774 70.795-14.297 110.535 2.678 11.228 2.336 11.276-7.226 1.018-40.961-43.944-96.357-70.461-147.386-70.55-21.091-0.037-49.396 3.723-64.243 8.533-47.021 15.235-76.818 51.595-76.831 93.752-0.003 10.092 3.538 32.824 7.515 48.241 13.407 51.969 37.989 97.82 88.363 164.817l13.954 18.559v80.587c0 94.101-1.195 84.997 11.874 90.474 67.849 28.437 148.271 45.742 230.998 49.705 12.443 0.596 58.977-0.316 73.567-1.442z"></path>
</svg>
