<!-- Generated by IcoMoon.io -->
<svg version="1.1" xmlns="http://www.w3.org/2000/svg" width="1024" height="1024" viewBox="0 0 1024 1024">
<title></title>
<g id="icomoon-ignore">
</g>
<path d="M478.268 970.187c-33.141-3.307-62.307-8.728-89.67-16.667-98.783-28.662-184.234-89.912-243.695-174.677-45.037-64.203-72.803-138.501-81.581-218.301-2.194-19.947-2.56-72.828-0.637-92.084 8.537-85.475 40.669-168.808 90.748-235.346 28.139-37.387 64.851-72.765 103.771-99.996 67.829-47.46 150.096-75.843 228.593-78.869 57.948-2.233 100.544 2.146 146.673 15.080 162.237 45.489 288.157 182.811 321.522 350.635 6.934 34.877 7.958 46.725 7.958 92.040 0 45.318-1.027 57.197-7.96 92.040-24.417 122.712-97.905 230.063-203.989 297.984-19.6 12.549-60.999 33.148-82.805 41.203-39.107 14.445-80.019 23.468-120.26 26.525-14.996 1.139-58.828 1.417-68.668 0.435zM289.129 632.433c26.352-2.347 45.138-6.715 68.367-15.894l12.348-4.88v-114.115h-96.376v20.438c0 18.973 0.167 20.527 2.33 21.685 1.282 0.686 9.413 1.247 18.071 1.247h15.74v20.953c0 18.837-0.213 21.037-2.108 21.782-1.16 0.456-8.614 1.418-16.565 2.138-26.997 2.445-45.925-3.151-60.426-17.865-8.572-8.698-14.057-19.116-16.92-32.14-2.694-12.254-2.681-37.633 0.024-47.875 5.938-22.48 20.623-39.238 40.72-46.468 8.201-2.95 25.26-4.143 41.566-2.907 16.518 1.252 34.884 6.558 53.645 15.496 5.731 2.731 10.746 4.965 11.144 4.965s0.723-11.577 0.723-25.728v-25.728l-15.36-5.004c-25.749-8.389-43.501-11.183-70.807-11.146-29.87 0.041-49.619 4.322-70.136 15.202-30.486 16.167-49.611 42.288-56.47 77.129-3.024 15.362-2.817 43.050 0.437 58.399 11.221 52.919 48.798 84.272 108.731 90.719 8.55 0.92 17.81 0.8 31.322-0.403zM785.58 630.709c49.839-8.722 82.036-41.789 90.367-92.808 2.212-13.548 1.935-42.16-0.532-54.9-8.044-41.542-31.043-70.407-66.37-83.3-26.956-9.838-58.974-11.477-88.398-4.526-39.72 9.384-67.695 37.088-78.757 77.992-3.847 14.225-4.561 55.336-1.239 71.359 4.945 23.853 14.149 41.208 30.567 57.636 25.385 25.401 69.464 36.404 114.363 28.546zM481.882 589.29v-39.566l24.998-0.758c31.364-0.951 44.020-2.534 56.583-7.080 23.517-8.509 38.609-24.174 45.684-47.417 3.327-10.93 3.099-35.673-0.432-46.921-7.267-23.148-24.777-39.696-50.261-47.498-12.542-3.84-30.962-4.866-87.715-4.887l-51.501-0.019v233.713h62.645zM742.128 586.041c-9.228-2.585-15.586-6.615-22.67-14.365-7.226-7.906-11.307-15.838-14.9-28.956-2.249-8.21-2.64-12.76-2.64-30.72 0-17.77 0.402-22.539 2.556-30.354 4.034-14.631 8.284-22.406 17.053-31.196 11.129-11.156 17.718-13.635 36.233-13.635 11.722 0 14.966 0.438 21.082 2.847 9.719 3.828 21.675 15.686 26.779 26.559 6.63 14.124 8.081 22.341 8.081 45.779s-1.45 31.655-8.081 45.779c-5.155 10.982-17.090 22.776-26.779 26.463-9.441 3.593-27.206 4.463-36.714 1.799zM480.678 471.642v-31.925h17.247c26.447 0 36.642 2.665 43.906 11.478 4.451 5.399 6.312 11.48 6.304 20.587-0.010 10.928-1.913 16.018-8.309 22.223-8.179 7.935-14.924 9.562-39.651 9.562h-19.497zM477.666 971.386c-170.778-14.423-315.395-120.245-382.565-279.938-17.114-40.686-29.030-88.894-33.785-136.681-1.852-18.612-1.852-66.923 0-85.534 13.333-133.992 79.309-251.948 184.444-329.763 63.224-46.794 136.389-75.706 216.245-85.449 17.841-2.177 82.149-2.177 99.991 0 18.092 2.207 42.883 6.809 60.128 11.16 173.797 43.851 307.383 191.263 336.134 370.922 4.6 28.742 5.865 45.121 5.865 75.896s-1.266 47.155-5.865 75.896c-29.508 184.393-168.701 333.593-348.864 373.947-16.982 3.804-40.118 7.375-58.843 9.083-12.578 1.147-61.12 1.453-72.885 0.46zM289.858 631.218c25.301-2.040 46.219-7.042 68.561-16.395l10.221-4.278v-111.797h-94.025l0.661 40.358 35.539 0.667v44.224l-5.722 1.482c-3.147 0.815-11.686 1.757-18.974 2.094-25.206 1.166-43.209-4.64-56.621-18.258-12.535-12.727-18.179-27.781-19.456-51.893-2.209-41.682 16.148-70.608 50.176-79.068 10.081-2.506 39.211-2.15 51.2 0.627 12.917 2.992 28.092 8.431 39.454 14.142l9.336 4.693v-48.945l-11.746-4.334c-39.33-14.513-89.766-16.547-124.386-5.016-19.93 6.638-38.923 19.263-51.413 34.175-8.070 9.635-17.671 28.69-20.94 41.562-9.321 36.692-3.619 79.503 14.156 106.283 21.027 31.68 56.807 49.231 103.5 50.768 2.72 0.090 11.936-0.401 20.48-1.090zM773.595 631.219c44.165-4.432 74.584-24.592 91.412-60.582 15.606-33.376 15.606-83.898 0-117.274-10.488-22.432-25.37-37.895-46.788-48.615-19.818-9.919-48.782-14.608-74.643-12.084-33.195 3.24-55.857 13.25-74.551 32.93-13.976 14.713-22.457 31.455-27.285 53.863-3.337 15.487-3.555 47.473-0.43 63.109 2.773 13.874 7.999 28.057 14.16 38.427 5.539 9.323 17.804 22.885 26.413 29.205 14.43 10.593 36.903 18.713 57.806 20.887 14.644 1.523 19.851 1.544 33.905 0.133zM480.678 587.896v-39.755l17.167-0.035c22.657-0.046 46.080-1.823 56.077-4.254 4.44-1.080 12.681-4.159 18.313-6.842 24.843-11.837 38.597-35.261 38.53-65.618-0.075-33.811-17.391-58.215-49.040-69.116-15.095-5.199-25.407-5.918-84.962-5.923l-56.32-0.005v231.304h60.235z"></path>
</svg>
