<!-- Generated by IcoMoon.io -->
<svg version="1.1" xmlns="http://www.w3.org/2000/svg" width="1024" height="1024" viewBox="0 0 1024 1024">
<title></title>
<g id="icomoon-ignore">
</g>
<path d="M479.736 369.152c-2.851-1.295-6.819-4.496-8.817-7.113l-3.632-4.759-0.39-28.441c-0.214-15.643-0.050-30.266 0.365-32.497 0.974-5.232 5.99-11.146 12.099-14.262 4.362-2.225 7.523-2.464 32.64-2.464s28.278 0.239 32.64 2.464c6.108 3.116 11.125 9.030 12.099 14.262 0.415 2.231 0.579 16.855 0.365 32.497l-0.39 28.441-3.632 4.759c-6.574 8.613-10.283 9.467-41.081 9.467-23.76 0-27.716-0.289-32.264-2.354zM757.362 741.814c-2.561-1.352-6.245-4.542-8.187-7.089l-3.531-4.63v-63.369l3.632-4.762c6.572-8.616 10.28-9.471 41.081-9.471 30.798 0 34.507 0.855 41.081 9.467l3.632 4.759 0.39 28.441c0.215 15.643 0.050 30.266-0.365 32.497-0.974 5.232-5.99 11.146-12.099 14.262-4.377 2.233-7.459 2.459-32.904 2.408-25.351-0.050-28.526-0.294-32.73-2.514zM479.090 741.857c-5.914-3.125-10.876-9.081-11.828-14.199-0.415-2.231-0.579-16.855-0.365-32.497l0.39-28.441 3.632-4.759c6.574-8.613 10.283-9.467 41.081-9.467s34.507 0.855 41.081 9.467l3.632 4.759 0.39 28.441c0.214 15.643 0.050 30.266-0.365 32.497-0.974 5.232-5.99 11.146-12.099 14.262-4.377 2.233-7.459 2.459-32.904 2.408-25.179-0.050-28.546-0.305-32.646-2.471zM477.993 972.164c-58.237-4.421-112.046-19.493-166.258-46.568-60.88-30.405-113.153-73.257-155.158-127.192-52.015-66.788-84.617-146.637-95.081-232.873-3.099-25.542-3.091-81.639 0.016-107.060 14.692-120.205 71.576-226.378 162.055-302.471 67.446-56.722 148.626-91.73 238.052-102.656 25.228-3.082 75.534-3.082 100.763 0 122.413 14.956 229.758 75.587 305.097 172.324 52.078 66.869 84.526 146.364 95.023 232.802 3.093 25.466 3.093 81.594 0 107.060-4.993 41.112-14.944 80.909-29.448 117.766-43.668 110.972-128.21 200.529-235.903 249.896-67.606 30.991-144.404 44.647-219.159 38.972zM271.682 790.864c22.391-4.635 42.526-22.26 51.113-44.743 3.231-8.46 3.321-9.489 3.785-43.563 0.435-31.98 0.259-35.753-2.112-45.128-3.375-13.344-8.755-22.628-18.955-32.702-9.472-9.355-21.049-15.61-33.959-18.347-11.528-2.444-64.294-2.444-75.822 0-25.748 5.458-46.803 25.839-53.383 51.674-2.34 9.186-2.737 68.365-0.53 79.024 5.147 24.864 26.982 47.328 51.861 53.357 8.487 2.057 68.542 2.386 78.001 0.428zM550.039 790.864c18.928-3.918 39.172-19.473 47.378-36.404 7.428-15.325 8.044-20.213 7.52-59.624-0.455-34.213-0.583-35.761-3.616-43.676-8.871-23.148-28.010-39.818-51.41-44.778-11.528-2.444-64.294-2.444-75.822 0-23.399 4.96-42.538 21.63-51.41 44.778-3.033 7.915-3.162 9.463-3.616 43.676-0.524 39.412 0.093 44.299 7.52 59.624 7.923 16.347 27.107 31.53 45.454 35.976 8.487 2.057 68.542 2.386 78.001 0.428zM828.396 790.864c3.671-0.76 10.925-3.395 16.121-5.857 18.127-8.587 33.594-28.269 37.664-47.928 2.206-10.659 1.809-69.838-0.53-79.024-6.575-25.815-27.564-46.204-53.146-51.625-11.774-2.495-64.374-2.526-76.078-0.045-26.362 5.588-47.248 26.322-53.45 53.061-1.673 7.212-1.944 14.775-1.554 43.373 0.461 33.795 0.553 34.848 3.782 43.302 8.34 21.833 27.446 39.046 49.19 44.315 8.487 2.057 68.542 2.386 78.001 0.428zM240.217 557.918c6.266-1.74 12.169-6.906 14.99-13.118 1.777-3.911 2.319-8.227 2.34-18.63l0.028-13.54h230.494l0.028 13.54c0.031 15.422 1.958 21.453 8.649 27.084 3.741 3.148 10.946 5.965 15.254 5.965s11.514-2.817 15.255-5.965c6.691-5.63 8.617-11.662 8.649-27.084l0.028-13.54h230.494l0.028 13.54c0.032 15.422 1.958 21.453 8.649 27.084 3.741 3.148 10.946 5.965 15.255 5.965 4.552 0 11.737-2.935 15.697-6.411 7.713-6.772 8.46-10.834 8.007-43.518-0.392-28.227-0.48-29.084-3.437-33.396-1.669-2.434-5.028-5.792-7.465-7.461l-4.429-3.035-262.798-0.664v-22.654c0-22.647 0.001-22.654 2.834-22.676 6.303-0.049 19.939-3.78 27.776-7.601 15.575-7.594 28.163-21.695 34.78-38.961 3.033-7.915 3.162-9.463 3.616-43.676 0.524-39.412-0.093-44.299-7.52-59.624-8.206-16.931-28.45-32.486-47.378-36.404-8.754-1.812-67.324-1.812-76.078 0-19.638 4.065-39.307 19.513-47.953 37.664-6.814 14.303-7.492 20.087-6.948 59.229 0.463 33.261 0.604 34.925 3.623 42.812 9.341 24.401 30.427 41.663 55.624 45.535l9.761 1.5v44.857l-262.798 0.664-4.429 3.035c-2.436 1.669-5.795 5.027-7.465 7.461-2.957 4.312-3.046 5.169-3.437 33.396-0.335 24.115-0.067 29.847 1.597 34.204 2.468 6.463 7.69 11.611 14.093 13.894 5.938 2.117 8.535 2.211 14.588 0.53zM201.525 742.407c-5.885-3.055-10.638-8.203-12.079-13.085-0.806-2.728-1.162-15.751-0.917-33.531l0.401-29.071 3.632-4.759c6.574-8.613 10.283-9.468 41.081-9.468 30.801 0 34.509 0.855 41.081 9.471l3.632 4.762v63.369l-3.537 4.637c-6.85 8.981-9.736 9.653-41.441 9.644-22.944-0.006-28.765-0.366-31.853-1.969z"></path>
</svg>
